<?xml version="1.0" standalone="no"?>
<!DOCTYPE svg PUBLIC "-//W3C//DTD SVG 1.1//EN" "http://www.w3.org/Graphics/SVG/1.1/DTD/svg11.dtd" >
<svg xmlns="http://www.w3.org/2000/svg">
<metadata>Generated by IcoMoon</metadata>
<defs>
<font id="icomoon" horiz-adv-x="1024">
<font-face units-per-em="1024" ascent="960" descent="-64" />
<missing-glyph horiz-adv-x="1024" />
<glyph unicode="&#x20;" horiz-adv-x="512" d="" />
<glyph unicode="&#xe900;" glyph-name="adjustments-horizontal" d="M520.811 875.774c26.607 26.61 62.699 41.559 100.331 41.559s73.724-14.949 100.331-41.559c26.611-26.61 41.562-62.7 41.562-100.332s-14.95-73.723-41.562-100.332c-26.607-26.61-62.699-41.559-100.331-41.559s-73.724 14.949-100.331 41.559c-26.611 26.609-41.562 62.7-41.562 100.332s14.95 73.722 41.562 100.332zM621.141 851.845c-20.262 0-39.697-8.050-54.025-22.378s-22.379-33.762-22.379-54.025c0-20.263 8.051-39.697 22.379-54.025s33.762-22.378 54.025-22.378c20.262 0 39.697 8.049 54.025 22.378s22.379 33.762 22.379 54.025c0 20.263-8.051 39.697-22.379 54.025s-33.762 22.378-54.025 22.378zM42.667 775.442c0 18.084 14.66 32.744 32.744 32.744h436.589c18.082 0 32.742-14.66 32.742-32.744s-14.66-32.744-32.742-32.744h-436.589c-18.084 0-32.744 14.66-32.744 32.744zM697.54 775.442c0 18.084 14.66 32.744 32.747 32.744h218.295c18.082 0 32.742-14.66 32.742-32.744s-14.66-32.744-32.742-32.744h-218.295c-18.086 0-32.747 14.66-32.747 32.744zM193.392 548.333c26.61 26.61 62.701 41.559 100.333 41.559s73.722-14.949 100.332-41.559c26.609-26.609 41.561-62.701 41.561-100.333s-14.951-73.724-41.561-100.331c-26.61-26.611-62.701-41.562-100.332-41.562s-73.723 14.95-100.333 41.562c-26.609 26.607-41.559 62.699-41.559 100.331s14.95 73.724 41.559 100.333zM293.725 524.403c-20.264 0-39.697-8.051-54.025-22.379s-22.378-33.762-22.378-54.025c0-20.262 8.049-39.697 22.378-54.025s33.762-22.379 54.025-22.379c20.263 0 39.697 8.051 54.025 22.379s22.378 33.762 22.378 54.025c0 20.262-8.049 39.697-22.378 54.025s-33.762 22.379-54.025 22.379zM42.667 448c0 18.086 14.66 32.747 32.744 32.747h109.147c18.084 0 32.744-14.66 32.744-32.747 0-18.082-14.66-32.742-32.744-32.742h-109.147c-18.084 0-32.744 14.66-32.744 32.742zM370.125 448c0 18.086 14.66 32.747 32.745 32.747h545.734c18.086 0 32.747-14.66 32.747-32.747 0-18.082-14.66-32.742-32.747-32.742h-545.734c-18.084 0-32.745 14.66-32.745 32.742zM684.518 220.89c26.607 26.611 62.699 41.562 100.331 41.562s73.724-14.95 100.335-41.562c26.607-26.611 41.557-62.699 41.557-100.331s-14.95-73.724-41.557-100.335c-26.611-26.607-62.703-41.557-100.335-41.557s-73.724 14.95-100.331 41.557c-26.611 26.611-41.562 62.703-41.562 100.335s14.95 73.719 41.562 100.331zM784.849 196.962c-20.262 0-39.697-8.051-54.025-22.379s-22.379-33.762-22.379-54.025c0-20.262 8.051-39.697 22.379-54.025 14.327-14.332 33.762-22.379 54.025-22.379s39.697 8.047 54.025 22.379c14.332 14.327 22.379 33.762 22.379 54.025s-8.047 39.697-22.379 54.025c-14.327 14.327-33.762 22.379-54.025 22.379zM42.667 120.559c0 18.082 14.66 32.742 32.744 32.742h600.31c18.086 0 32.747-14.66 32.747-32.742 0-18.086-14.66-32.747-32.747-32.747h-600.31c-18.084 0-32.744 14.66-32.744 32.747zM861.291 120.559c0 18.082 14.66 32.742 32.747 32.742h54.571c18.086 0 32.747-14.66 32.747-32.742 0-18.086-14.66-32.747-32.747-32.747h-54.571c-18.086 0-32.747 14.66-32.747 32.747z" />
<glyph unicode="&#xe901;" glyph-name="arrange-letter" d="M352.009 962.258c18.851 0 34.133-15.282 34.133-34.133v-960.001c0-18.85-15.282-34.133-34.133-34.133s-34.133 15.283-34.133 34.133v960.001c0 18.851 15.282 34.133 34.133 34.133zM135.872 184.26c13.33 13.329 34.942 13.329 48.272 0l167.864-167.863 167.863 167.863c13.329 13.329 34.944 13.329 48.273 0s13.329-34.94 0-48.273l-192.001-192c-13.33-13.329-34.942-13.329-48.272 0l-192 192c-13.33 13.333-13.33 34.944 0 48.273zM827.648 317.495c-0.619 0.324-1.306 0.495-2.001 0.495h-153.609c-18.854 0-34.133 15.283-34.133 34.133 0 18.854 15.279 34.133 34.133 34.133h153.587c0.004 0-0.004 0 0 0 11.853 0.004 23.531-2.897 34.001-8.448 10.47-5.555 19.422-13.589 26.074-23.403 6.647-9.813 10.79-21.107 12.062-32.892s-0.363-23.701-4.762-34.709c-0.883-2.214-2.001-4.335-3.328-6.319l-183.526-274.155c0.004-0.085 0.009-0.175 0.021-0.26 0.073-0.695 0.316-1.361 0.708-1.937 0.393-0.58 0.917-1.054 1.536-1.378 0.614-0.329 1.301-0.499 2.001-0.499h153.626c18.85 0 34.133-15.279 34.133-34.133 0-18.85-15.283-34.133-34.133-34.133h-153.574c-0.009 0 0.009 0 0 0-11.857-0.004-23.556 2.897-34.031 8.452-10.483 5.555-19.439 13.598-26.091 23.424-6.652 9.822-10.79 21.129-12.053 32.926-1.267 11.793 0.384 23.718 4.8 34.731 0.883 2.206 1.993 4.309 3.315 6.285l183.505 274.125c-0.004 0.085-0.009 0.166-0.017 0.252-0.077 0.691-0.32 1.357-0.713 1.933-0.388 0.58-0.917 1.050-1.532 1.378zM675.989 924.018c24.405 24.405 57.506 38.115 92.019 38.115s67.614-13.71 92.019-38.115c24.405-24.405 38.114-57.505 38.114-92.018v-287.915c0-18.85-15.283-34.133-34.133-34.133s-34.133 15.283-34.133 34.133v287.915c0 16.408-6.519 32.144-18.121 43.747s-27.337 18.12-43.746 18.12c-16.41 0-32.145-6.518-43.746-18.12s-18.121-27.338-18.121-43.747v-288c0-18.85-15.283-34.133-34.133-34.133s-34.133 15.283-34.133 34.133v288c0 34.513 13.709 67.613 38.114 92.018zM637.875 672.125c0 18.851 15.283 34.133 34.133 34.133h192c18.85 0 34.133-15.282 34.133-34.133s-15.283-34.133-34.133-34.133h-192c-18.85 0-34.133 15.282-34.133 34.133z" />
<glyph unicode="&#xe902;" glyph-name="arrow-circle-alt-down" d="M512 960c282.769 0 512-229.23 512-512s-229.231-512-512-512c-282.77 0-512 229.231-512 512s229.23 512 512 512zM522.394 280.064l93.542 93.542c5.739 5.739 5.739 15.049 0 20.787-5.743 5.739-15.049 5.739-20.787 0l-68.45-68.45v291.15h-29.397v-291.15l-68.45 68.45c-5.739 5.739-15.046 5.739-20.786 0s-5.74-15.049 0-20.787l93.541-93.542c5.739-5.739 15.049-5.739 20.787 0z" />
<glyph unicode="&#xe903;" glyph-name="arrow-circle-alt-left" d="M512-64c-282.77 0-512 229.231-512 512s229.23 512 512 512c282.769 0 512-229.23 512-512s-229.231-512-512-512zM345.638 439.181l93.542-93.542c5.739-5.739 15.044-5.739 20.787 0 5.739 5.739 5.739 15.049 0 20.787l-68.451 68.45h291.149v29.397h-291.149l68.451 68.446c5.739 5.742 5.739 15.049 0 20.788-5.743 5.74-15.049 5.74-20.787 0l-93.542-93.539c-5.74-5.743-5.74-15.049 0-20.787z" />
<glyph unicode="&#xe904;" glyph-name="arrow-circle-alt-right" d="M512 960c282.769 0 512-229.23 512-512s-229.231-512-512-512c-282.77 0-512 229.231-512 512s229.23 512 512 512zM678.362 456.819l-93.542 93.542c-5.739 5.74-15.044 5.74-20.787 0-5.739-5.74-5.739-15.047 0-20.787l68.45-68.45h-291.149v-29.397h291.149l-68.45-68.446c-5.739-5.743-5.739-15.049 0-20.787 5.743-5.743 15.049-5.743 20.787 0l93.542 93.538c5.739 5.743 5.739 15.049 0 20.787z" />
<glyph unicode="&#xe905;" glyph-name="arrow-circle-alt-up" d="M512 960c282.769 0 512-229.23 512-512s-229.231-512-512-512c-282.77 0-512 229.231-512 512s229.23 512 512 512zM501.606 612.788l-93.541-93.539c-5.74-5.743-5.74-15.049 0-20.787 5.74-5.743 15.047-5.743 20.786 0l68.45 68.448v-291.151h29.397v291.151l68.45-68.448c5.739-5.743 15.044-5.743 20.787 0 5.739 5.739 5.739 15.044 0 20.787l-93.542 93.539c-5.739 5.74-15.049 5.74-20.787 0z" />
<glyph unicode="&#xe906;" glyph-name="arrow-circle-down" d="M989.867 448c0-263.919-213.948-477.867-477.867-477.867s-477.867 213.948-477.867 477.867c0 263.919 213.948 477.867 477.867 477.867s477.867-213.948 477.867-477.867zM512-64c282.769 0 512 229.231 512 512s-229.231 512-512 512c-282.77 0-512-229.23-512-512s229.23-512 512-512zM615.945 373.606l-93.542-93.542c-5.739-5.739-15.044-5.739-20.787 0l-93.539 93.542c-5.74 5.739-5.74 15.049 0 20.787s15.047 5.739 20.788 0l68.446-68.45v291.15h29.397v-291.15l68.45 68.45c5.739 5.739 15.049 5.739 20.787 0s5.739-15.049 0-20.787z" />
<glyph unicode="&#xe907;" glyph-name="arrow-circle-down-2" d="M512-21.333c-259.206 0-469.333 210.129-469.333 469.333 0 259.206 210.128 469.333 469.333 469.333 259.204 0 469.333-210.128 469.333-469.333 0-259.204-210.129-469.333-469.333-469.333zM512-64c282.769 0 512 229.231 512 512s-229.231 512-512 512c-282.77 0-512-229.23-512-512s229.23-512 512-512zM768 418.573v-141.239l-255.334 198.784-256.666-198.784v141.239l256.666 200.094 255.334-200.094z" />
<glyph unicode="&#xe908;" glyph-name="arrow-circle-left" d="M34.133 448c0 263.919 213.948 477.867 477.867 477.867s477.867-213.948 477.867-477.867c0-263.919-213.948-477.867-477.867-477.867s-477.867 213.948-477.867 477.867zM512 960c-282.77 0-512-229.23-512-512s229.23-512 512-512c282.769 0 512 229.231 512 512s-229.231 512-512 512zM439.181 345.638l-93.542 93.542c-5.74 5.739-5.74 15.044 0 20.787l93.542 93.539c5.739 5.74 15.044 5.74 20.787 0 5.739-5.74 5.739-15.047 0-20.788l-68.451-68.446h291.149v-29.397h-291.149l68.451-68.45c5.739-5.739 5.739-15.049 0-20.787-5.743-5.739-15.049-5.739-20.787 0z" />
<glyph unicode="&#xe909;" glyph-name="arrow-circle-left-2" d="M512-21.333c-259.206 0-469.333 210.129-469.333 469.333 0 259.206 210.128 469.333 469.333 469.333 259.204 0 469.333-210.128 469.333-469.333 0-259.204-210.129-469.333-469.333-469.333zM512-64c282.769 0 512 229.231 512 512s-229.231 512-512 512c-282.77 0-512-229.23-512-512s229.23-512 512-512zM541.427 704h141.239l-198.784-255.334 198.784-256.666h-141.239l-200.094 256.666 200.094 255.334z" />
<glyph unicode="&#xe90a;" glyph-name="arrow-circle-right" d="M989.867 448c0-263.919-213.948-477.867-477.867-477.867s-477.867 213.948-477.867 477.867c0 263.919 213.948 477.867 477.867 477.867s477.867-213.948 477.867-477.867zM512-64c282.769 0 512 229.231 512 512s-229.231 512-512 512c-282.77 0-512-229.23-512-512s229.23-512 512-512zM584.819 550.362l93.542-93.542c5.739-5.739 5.739-15.044 0-20.787l-93.542-93.538c-5.739-5.743-15.044-5.743-20.787 0-5.739 5.739-5.739 15.044 0 20.787l68.45 68.446h-291.149v29.397h291.149l-68.45 68.45c-5.739 5.74-5.739 15.047 0 20.787 5.743 5.74 15.049 5.74 20.787 0z" />
<glyph unicode="&#xe90b;" glyph-name="arrow-circle-right-2" d="M512-21.333c-259.206 0-469.333 210.129-469.333 469.333 0 259.206 210.128 469.333 469.333 469.333 259.204 0 469.333-210.128 469.333-469.333 0-259.204-210.129-469.333-469.333-469.333zM512-64c282.769 0 512 229.231 512 512s-229.231 512-512 512c-282.77 0-512-229.23-512-512s229.23-512 512-512zM482.573 704h-141.239l198.784-255.334-198.784-256.666h141.239l200.094 256.666-200.094 255.334z" />
<glyph unicode="&#xe90c;" glyph-name="arrow-circle-up" d="M989.867 448c0-263.919-213.948-477.867-477.867-477.867s-477.867 213.948-477.867 477.867c0 263.919 213.948 477.867 477.867 477.867s477.867-213.948 477.867-477.867zM512-64c282.769 0 512 229.231 512 512s-229.231 512-512 512c-282.77 0-512-229.23-512-512s229.23-512 512-512zM408.055 519.249l93.543 93.539c5.739 5.74 15.044 5.74 20.787 0l93.538-93.539c5.743-5.743 5.743-15.049 0-20.787-5.739-5.743-15.044-5.743-20.787 0l-68.446 68.448v-291.151h-29.397v291.151l-68.45-68.448c-5.741-5.743-15.047-5.743-20.788 0-5.74 5.739-5.74 15.044 0 20.787z" />
<glyph unicode="&#xe90d;" glyph-name="arrow-circle-up-2" d="M512-21.333c-259.206 0-469.333 210.129-469.333 469.333 0 259.206 210.128 469.333 469.333 469.333 259.204 0 469.333-210.128 469.333-469.333 0-259.204-210.129-469.333-469.333-469.333zM512-64c282.769 0 512 229.231 512 512s-229.231 512-512 512c-282.77 0-512-229.23-512-512s229.23-512 512-512zM256 477.427v141.239l255.334-198.784 256.666 198.784v-141.239l-256.666-200.094-255.334 200.094z" />
<glyph unicode="&#xe90e;" glyph-name="arrow-down" d="M55.163 691.503c16.663 16.662 43.677 16.662 60.34 0l396.497-396.497 396.497 396.497c16.661 16.662 43.678 16.662 60.339 0s16.661-43.677 0-60.34l-426.667-426.666c-16.661-16.661-43.678-16.661-60.339 0l-426.667 426.666c-16.662 16.663-16.662 43.677 0 60.34z" />
<glyph unicode="&#xe90f;" glyph-name="arrow-left" d="M755.503 904.837c16.661-16.663 16.661-43.677 0-60.34l-396.497-396.497 396.497-396.497c16.661-16.661 16.661-43.678 0-60.339s-43.678-16.661-60.339 0l-426.667 426.667c-16.662 16.661-16.662 43.678 0 60.339l426.667 426.667c16.661 16.662 43.678 16.662 60.339 0z" />
<glyph unicode="&#xe910;" glyph-name="arrow-long-down" d="M490.667 917.333c0 11.782 9.553 21.333 21.333 21.333s21.333-9.551 21.333-21.333h-42.667zM527.087-36.42c-8.333-8.329-21.841-8.329-30.174 0l-135.762 135.765c-8.332 8.333-8.332 21.841 0 30.17 8.331 8.333 21.839 8.333 30.17 0l120.68-120.678 120.678 120.678c8.333 8.333 21.841 8.333 30.17 0 8.333-8.329 8.333-21.837 0-30.17l-135.761-135.765zM533.333 917.333v-938.667h-42.667v938.667h42.667z" />
<glyph unicode="&#xe911;" glyph-name="arrow-long-down-2" d="M499.2 917.333c0 7.069 5.73 12.8 12.8 12.8s12.8-5.731 12.8-12.8h-25.6zM521.050-30.383c-4.996-5.001-13.103-5.001-18.099 0l-81.46 81.459c-4.999 4.996-4.999 13.103 0 18.099 4.999 5.001 13.104 5.001 18.1 0l72.41-72.405 72.41 72.405c4.996 5.001 13.103 5.001 18.099 0 5.001-4.996 5.001-13.103 0-18.099l-81.459-81.459zM524.8 917.333v-938.667h-25.6v938.667h25.6z" />
<glyph unicode="&#xe912;" glyph-name="arrow-long-left" d="M981.333 469.333c11.78 0 21.333-9.553 21.333-21.333s-9.553-21.333-21.333-21.333v42.667zM27.582 432.913c-8.331 8.333-8.331 21.841 0 30.174l135.765 135.762c8.331 8.332 21.839 8.332 30.17 0s8.332-21.839 0-30.17l-120.679-120.68 120.679-120.678c8.332-8.333 8.332-21.841 0-30.17-8.331-8.333-21.839-8.333-30.17 0l-135.765 135.761zM981.333 426.667h-938.667v42.667h938.667v-42.667z" />
<glyph unicode="&#xe913;" glyph-name="arrow-long-left-2" d="M42.667 460.8c-7.069 0-12.8-5.73-12.8-12.8s5.731-12.8 12.8-12.8v25.6zM990.383 438.95c5.001 4.996 5.001 13.103 0 18.099l-81.459 81.46c-4.996 4.999-13.103 4.999-18.099 0-5.001-4.999-5.001-13.104 0-18.1l72.405-72.41-72.405-72.41c-5.001-4.996-5.001-13.103 0-18.099 4.996-5.001 13.103-5.001 18.099 0l81.459 81.459zM42.667 435.2h938.667v25.6h-938.667v-25.6z" />
<glyph unicode="&#xe914;" glyph-name="arrow-long-right" d="M42.667 426.667c-11.782 0-21.333 9.553-21.333 21.333s9.551 21.333 21.333 21.333v-42.667zM996.42 463.087c8.329-8.333 8.329-21.841 0-30.174l-135.765-135.761c-8.333-8.333-21.841-8.333-30.17 0-8.333 8.329-8.333 21.837 0 30.17l120.678 120.678-120.678 120.68c-8.333 8.331-8.333 21.839 0 30.17 8.329 8.332 21.837 8.332 30.17 0l135.765-135.762zM42.667 469.333h938.667v-42.667h-938.667v42.667z" />
<glyph unicode="&#xe915;" glyph-name="arrow-long-right-2" d="M981.333 460.8c7.070 0 12.8-5.73 12.8-12.8s-5.73-12.8-12.8-12.8v25.6zM33.616 438.95c-4.999 4.996-4.999 13.103 0 18.099l81.459 81.46c4.998 4.999 13.103 4.999 18.102 0s4.999-13.104 0-18.1l-72.408-72.41 72.408-72.41c4.999-4.996 4.999-13.103 0-18.099-4.999-5.001-13.103-5.001-18.102 0l-81.459 81.459zM981.333 435.2h-938.667v25.6h938.667v-25.6z" />
<glyph unicode="&#xe916;" glyph-name="arrow-long-up" d="M533.333-21.333c0-11.78-9.553-21.333-21.333-21.333s-21.333 9.553-21.333 21.333h42.667zM496.913 932.418c8.333 8.331 21.841 8.331 30.174 0l135.761-135.765c8.333-8.331 8.333-21.839 0-30.17-8.329-8.332-21.837-8.332-30.17 0l-120.678 120.679-120.68-120.679c-8.331-8.332-21.839-8.332-30.17 0s-8.332 21.839 0 30.17l135.762 135.765zM490.667-21.333v938.667h42.667v-938.667h-42.667z" />
<glyph unicode="&#xe917;" glyph-name="arrow-long-up-2" d="M524.8-21.333c0-7.070-5.73-12.8-12.8-12.8s-12.8 5.73-12.8 12.8h25.6zM502.95 926.384c4.996 4.999 13.103 4.999 18.099 0l81.459-81.459c5.001-4.998 5.001-13.103 0-18.102-4.996-4.999-13.103-4.999-18.099 0l-72.41 72.408-72.41-72.408c-4.996-4.999-13.101-4.999-18.1 0s-4.999 13.103 0 18.102l81.46 81.459zM499.2-21.333v938.667h25.6v-938.667h-25.6z" />
<glyph unicode="&#xe918;" glyph-name="arrow-right" d="M268.497-8.836c-16.662 16.661-16.662 43.678 0 60.339l396.497 396.497-396.497 396.497c-16.662 16.663-16.662 43.677 0 60.34s43.677 16.662 60.34 0l426.666-426.667c16.661-16.661 16.661-43.678 0-60.339l-426.666-426.667c-16.663-16.661-43.677-16.661-60.34 0z" />
<glyph unicode="&#xe919;" glyph-name="arrow-square-alt-down" d="M1024 960v-1024h-1024v1024h1024zM522.385 280.064l93.538 93.542c5.743 5.739 5.743 15.049 0 20.787-5.739 5.739-15.044 5.739-20.787 0l-68.446-68.45v291.15h-29.397v-291.15l-68.45 68.45c-5.741 5.739-15.047 5.739-20.788 0s-5.74-15.049 0-20.787l93.543-93.542c5.739-5.739 15.044-5.739 20.787 0z" />
<glyph unicode="&#xe91a;" glyph-name="arrow-square-alt-left" d="M0-64v1024h1024v-1024h-1024zM345.638 439.181l93.542-93.542c5.739-5.739 15.044-5.739 20.787 0 5.739 5.739 5.739 15.049 0 20.787l-68.451 68.45h291.149v29.397h-291.149l68.451 68.446c5.739 5.742 5.739 15.049 0 20.788-5.743 5.74-15.049 5.74-20.787 0l-93.542-93.539c-5.74-5.743-5.74-15.049 0-20.787z" />
<glyph unicode="&#xe91b;" glyph-name="arrow-square-alt-right" d="M1024 960v-1024h-1024v1024h1024zM678.362 456.819l-93.542 93.542c-5.739 5.74-15.044 5.74-20.787 0-5.739-5.74-5.739-15.047 0-20.787l68.45-68.45h-291.149v-29.397h291.149l-68.45-68.446c-5.739-5.743-5.739-15.049 0-20.787 5.743-5.743 15.049-5.743 20.787 0l93.542 93.538c5.739 5.743 5.739 15.049 0 20.787z" />
<glyph unicode="&#xe91c;" glyph-name="arrow-square-alt-up" d="M1024 960v-1024h-1024v1024h1024zM501.606 612.788l-93.541-93.539c-5.74-5.743-5.74-15.049 0-20.787 5.74-5.743 15.047-5.743 20.786 0l68.45 68.448v-291.151h29.397v291.151l68.45-68.448c5.739-5.743 15.044-5.743 20.787 0 5.739 5.739 5.739 15.044 0 20.787l-93.542 93.539c-5.739 5.74-15.049 5.74-20.787 0z" />
<glyph unicode="&#xe91d;" glyph-name="arrow-square-down" d="M994.133 930.133v-964.267h-964.267v964.267h964.267zM0 960v-1024h1024v1024h-1024zM615.945 373.606l-93.542-93.542c-5.739-5.739-15.044-5.739-20.787 0l-93.539 93.542c-5.74 5.739-5.74 15.049 0 20.787s15.047 5.739 20.788 0l68.446-68.45v291.15h29.397v-291.15l68.45 68.45c5.739 5.739 15.049 5.739 20.787 0s5.739-15.049 0-20.787z" />
<glyph unicode="&#xe91e;" glyph-name="arrow-square-left" d="M994.133 930.133v-964.267h-964.267v964.267h964.267zM0 960v-1024h1024v1024h-1024zM439.181 366.972l-93.542 93.542c-5.74 5.739-5.74 15.044 0 20.787l93.542 93.539c5.739 5.74 15.044 5.74 20.787 0 5.739-5.74 5.739-15.047 0-20.787l-68.451-68.448h291.149v-29.397h-291.149l68.451-68.45c5.739-5.739 5.739-15.049 0-20.787-5.743-5.739-15.049-5.739-20.787 0z" />
<glyph unicode="&#xe91f;" glyph-name="arrow-square-right" d="M994.133 930.133v-964.267h-964.267v964.267h964.267zM0 960v-1024h1024v1024h-1024zM584.819 550.362l93.542-93.542c5.739-5.739 5.739-15.044 0-20.787l-93.542-93.538c-5.739-5.743-15.044-5.743-20.787 0-5.739 5.739-5.739 15.044 0 20.787l68.45 68.446h-291.149v29.397h291.149l-68.45 68.45c-5.739 5.74-5.739 15.047 0 20.787 5.743 5.74 15.049 5.74 20.787 0z" />
<glyph unicode="&#xe920;" glyph-name="arrow-square-up" d="M994.133 930.133v-964.267h-964.267v964.267h964.267zM0 960v-1024h1024v1024h-1024zM408.055 543.727l93.543 93.541c5.739 5.74 15.044 5.74 20.787 0l93.538-93.541c5.743-5.74 5.743-15.049 0-20.787-5.739-5.739-15.044-5.739-20.787 0l-68.446 68.449v-291.148h-29.397v291.148l-68.45-68.449c-5.741-5.739-15.047-5.739-20.788 0s-5.74 15.047 0 20.787z" />
<glyph unicode="&#xe921;" glyph-name="arrow-up" d="M968.836 204.497c-16.661-16.661-43.678-16.661-60.339 0l-396.497 396.497-396.497-396.497c-16.663-16.661-43.677-16.661-60.34 0s-16.662 43.678 0 60.339l426.667 426.667c16.661 16.662 43.678 16.662 60.339 0l426.667-426.667c16.661-16.661 16.661-43.678 0-60.339z" />
<glyph unicode="&#xe922;" glyph-name="brand-behance" d="M10.667 821.333h192.26c106.182 0 192.26-86.078 192.26-192.26 0-52.055-20.687-99.277-54.289-133.897 83.77-20.753 145.865-96.439 145.865-186.624 0-106.18-86.076-192.26-192.259-192.26h-283.837v705.041zM74.667 436.813v-256.521h219.837c70.836 0 128.26 57.425 128.26 128.26s-57.424 128.26-128.26 128.26h-219.837zM74.667 500.813h128.26c70.836 0 128.26 57.424 128.26 128.26s-57.424 128.26-128.26 128.26h-128.26v-256.521zM981.333 665.756h-412.096v64h412.096v-64zM560.128 331.447c0 118.827 96.329 215.154 215.155 215.154s215.155-96.328 215.155-215.154v-32h-362.914c14.682-68.113 75.26-119.155 147.759-119.155 32.124 0 61.815 9.984 86.272 27.017l36.578-52.514c-34.837-24.269-77.231-38.502-122.85-38.502-118.827 0-215.155 96.329-215.155 215.155zM627.524 363.447h295.522c-14.682 68.109-75.26 119.155-147.763 119.155-72.499 0-133.077-51.046-147.759-119.155z" />
<glyph unicode="&#xe923;" glyph-name="brand-behance-thin" d="M21.333 810.667h181.594c100.291 0 181.594-81.302 181.594-181.594 0-56.591-25.887-107.136-66.464-140.442 89.165-11.546 158.040-87.77 158.040-180.079 0-100.292-81.3-181.594-181.592-181.594h-273.171v683.708zM64 447.479v-277.854h230.504c76.727 0 138.925 62.199 138.925 138.927s-62.198 138.927-138.925 138.927h-230.504zM64 490.146h138.927c76.727 0 138.927 62.2 138.927 138.927s-62.2 138.927-138.927 138.927h-138.927v-277.854zM981.333 676.423h-412.096v42.667h412.096v-42.667zM570.795 331.447c0 112.934 91.554 204.488 204.489 204.488 112.939 0 204.489-91.553 204.489-204.488v-21.333h-364.915c10.441-79.287 78.289-140.489 160.427-140.489 34.372 0 66.185 10.692 92.369 28.932l24.384-35.012c-33.109-23.061-73.382-36.587-116.753-36.587-112.934 0-204.489 91.554-204.489 204.489zM614.857 352.781h320.853c-10.441 79.287-78.285 140.489-160.427 140.489-82.138 0-149.986-61.201-160.427-140.489z" />
<glyph unicode="&#xe924;" glyph-name="brand-figma" horiz-adv-x="983" d="M292.444 922.808c-13.148-1.802-34.12-7.782-48.251-13.804-60.867-25.887-102.236-82.084-110.060-149.504-6.226-53.535 16.671-114.606 56.852-151.552 6.226-5.734 14.131-12.288 17.49-14.541 3.4-2.294 6.144-4.71 6.144-5.448s-4.301-4.628-9.585-8.684c-27.238-20.972-51.282-57.262-61.44-92.774-7.617-27.251-8.908-55.882-3.775-83.71 5.132-27.824 16.552-54.112 33.389-76.853 7.619-10.158 27.525-30.228 36.905-37.151 4.301-3.154 7.782-5.898 7.782-6.103s-5.775-4.956-12.861-10.527c-36.372-28.631-60.334-71.352-66.847-119.071-5.857-43.090 4.71-87.818 29.696-126.157 8.274-12.657 36.536-40.919 49.193-49.193 56.607-36.946 123.658-41.452 183.501-12.329 29.543 14.553 54.668 36.725 72.784 64.225 10.977 16.63 17.736 31.703 24.207 54.108l4.424 15.278 1.802 198.984 7.373-5.857c25.584-20.23 55.988-33.456 88.228-38.38 20.439-2.949 51.405-1.229 71.516 4.014 19.661 5.12 48.169 18.76 63.324 30.228 72.090 54.764 94.74 148.152 55.501 228.925-12.575 25.887-29.245 46.367-53.903 66.273l-7.168 5.775 6.799 4.547c3.768 2.499 12.452 9.83 19.333 16.343 29.049 27.251 48.329 63.294 54.878 102.58s0.004 79.635-18.629 114.836c-22.159 41.031-58.95 72.22-103.055 87.368-26.952 9.257-27.812 9.298-216.965 9.052-95.517-0.123-175.881-0.532-178.584-0.901zM442.356 742.994c0-66.15-0.614-120.668-1.352-121.119s-34.077-0.942-74.136-1.106c-70.779-0.205-73.114-0.123-84.255 3.4-39.608 12.452-69.673 41.411-82.289 79.38-3.973 11.878-4.383 15.524-4.424 37.724-0.041 22.733 0.328 25.559 4.547 37.683 16.138 46.203 54.968 77.783 101.663 82.698 6.39 0.696 40.591 1.352 75.94 1.475l64.306 0.205v-120.34zM659.444 859.566c20.046-5.522 38.42-15.907 53.49-30.233s26.37-32.15 32.895-51.891c2.048-6.472 3.441-16.794 4.014-29.614 1.065-25.108-1.679-38.871-11.96-59.802-6.595-13.353-9.912-17.777-23.388-31.171-12.861-12.739-18.268-16.876-29.655-22.446-25.518-12.493-24.617-12.37-107.725-13.107l-74.138-0.696v243.057l73.318-0.778c59.556-0.614 75.162-1.229 83.149-3.318zM442.356 435.589v-122.962l-71.678 0.655c-80.323 0.696-79.708 0.614-105.267 13.107-11.428 5.571-16.753 9.626-29.655 22.405-24.33 24.207-35.103 47.104-37.028 78.971-2.335 38.052 9.339 68.772 36.291 95.642 17.613 17.572 40.305 29.737 62.054 33.382 4.669 0.778 39.24 1.516 76.882 1.597l68.402 0.205v-123.003zM662.721 553.103c18.514-6.021 32.276-14.582 47.636-29.737 23.716-23.347 34.611-47.555 36.291-80.323 2.048-40.796-12.861-75.162-44.237-101.827-21.422-18.002-48.476-27.922-76.456-28.041-27.98-0.123-55.116 9.568-76.694 27.386-20.89 17.531-35.267 39.567-41.492 63.529-3.932 14.991-4.71 43.54-1.597 58.245 8.847 42.312 45.097 81.019 86.098 91.914 14.95 3.973 16.548 4.137 37.683 3.604 15.729-0.41 22.282-1.393 32.768-4.751zM441.946 180.531c-0.655-68.239-0.86-72.253-4.342-83.927-9.593-32.039-31.436-58.999-60.783-75.039-14.868-8.274-29.778-12.083-50.954-13.025-24.248-1.106-39.199 1.925-60.457 12.288-13.23 6.431-17.777 9.789-30.31 22.405-24.371 24.494-34.652 46.981-36.372 79.585-2.662 49.234 21.053 91.177 65.126 115.18 22.897 12.493 33.014 13.722 115.18 14.008l63.609 0.205-0.696-71.68z" />
<glyph unicode="&#xe925;" glyph-name="brand-figma-thin" d="M471.053 957.44c0-2.219-9.344-2.56-73.815-2.56-43.349 0-80.171-0.768-89.173-1.877-61.099-7.509-112.128-43.392-139.136-97.963-14.444-28.638-20.945-60.625-18.83-92.629s12.773-62.857 30.862-89.344c10.027-14.891 35.797-39.979 50.688-49.28 6.784-4.224 12.331-8.107 12.373-8.619 0.043-0.469-5.035-4.224-11.221-8.32-53.333-35.029-84.181-99.669-78.976-165.248 2.429-27.11 10.88-53.338 24.734-76.766s32.765-43.469 55.351-58.658c7.467-4.907 13.397-9.088 13.141-9.344-0.213-0.213-6.187-4.224-13.227-8.96-26.748-17.591-48.254-42.078-62.251-70.869-27.563-56.875-23.552-125.653 10.325-177.28 10.411-15.829 37.291-42.709 52.907-52.992 24.59-15.748 52.561-25.442 81.621-28.288 45.282-4.181 90.476 8.858 126.568 36.518 36.096 27.665 60.433 67.917 68.164 112.73 2.091 12.117 2.56 34.219 2.56 123.179v108.373l13.227-12.629c20.523-19.584 41.6-32.597 67.072-41.301 93.568-32.085 196.309 19.243 228.352 114.048 12.651 38.204 12.395 79.505-0.725 117.547-6.677 17.831-15.701 34.691-26.837 50.133-12.791 15.769-27.729 29.671-44.373 41.301-3.951 2.41-7.77 5.031-11.435 7.851 0 0.256 3.627 2.56 8.107 5.163 29.312 17.067 58.112 48.896 72.107 79.787 15.117 33.112 19.75 70.056 13.278 105.876-6.477 35.82-23.748 68.805-49.502 94.529-16.939 16.768-28.16 24.832-48.256 34.645-34.56 16.853-48.939 18.688-146.304 18.688-65.28 0-74.709 0.341-74.709 2.56 0 2.133-3.499 2.56-21.333 2.56s-21.333-0.427-21.333-2.56zM471.053 775.936v-136.277l-78.551-0.896c-85.419-0.981-91.691-0.555-113.749 8.192-42.795 16.981-76.587 58.027-84.352 102.443-1.152 6.741-1.621 20.224-1.152 32.939 0.939 23.765 5.248 40.192 15.36 58.197 13.013 23.168 36.352 45.653 59.349 57.131 26.709 13.355 34.261 14.208 125.867 14.379l77.228 0.171v-136.277zM680.973 909.781c52.437-9.387 96.64-51.413 108.16-102.869 3.541-15.616 3.584-45.824 0.171-62.251-8.448-40.619-43.435-81.365-82.389-95.915-24.235-9.045-22.699-8.96-140.715-10.112l-52.48-0.469v274.048l77.227-0.043c56.917-0.043 80.597-0.683 90.027-2.389zM534.199 595.627c-3.136-3.945-6.558-7.653-10.24-11.093l-10.24-10.24v20.309l8.96 0.64c3.422 0.197 6.835 0.509 10.24 0.939 0.725 0.171 1.28-0.085 1.28-0.555zM471.053 456.533v-138.24h-74.668c-43.392 0-79.232 0.768-85.589 1.792-28.544 4.651-52.096 17.237-74.411 39.893-28.373 28.757-40.021 56.704-40.064 96.213-0.043 29.696 6.4 52.565 21.376 75.733 14.763 22.869 41.941 45.483 64.981 54.059 21.547 8.021 27.605 8.491 110.293 8.661l78.081 0.128v-138.24zM692.066 589.739c46.464-14.677 84.096-55.595 93.952-102.187 3.115-14.635 3.115-45.696 0-60.331-5.76-27.136-16.597-46.123-39.381-68.907-14.763-14.805-19.371-18.261-33.28-25.088-23.637-11.605-33.92-13.909-62.251-13.995-26.112-0.085-37.76 2.432-59.605 12.8-32.939 15.659-63.147 52.139-72.96 88.064-4.864 17.92-5.248 54.059-0.725 70.571 7.68 27.989 19.755 47.872 41.429 68.139 9.254 9.209 20.058 16.719 31.915 22.187 23.253 11.477 35.157 13.867 65.067 13.099 18.645-0.469 26.496-1.408 35.84-4.352zM470.626 194.133c-0.597-78.72-0.768-81.92-4.48-94.293-12.885-42.88-48.385-79.872-89.047-92.885-33.877-10.837-74.624-8.064-104.875 7.083-33.011 17.152-58.158 46.349-70.229 81.536-6.016 18.56-7.467 50.048-3.243 70.955 8.619 42.795 39.595 80.341 81.195 98.304 22.144 9.6 31.616 10.453 115.669 10.624l75.649 0.171-0.64-81.493z" />
<glyph unicode="&#xe926;" glyph-name="brand-dribbble" d="M10.667 448c0 271.684 229.649 501.333 501.333 501.333s501.333-229.649 501.333-501.333c0-271.684-229.649-501.333-501.333-501.333s-501.333 229.649-501.333 501.333zM74.876 461.218c-0.139-4.395-0.209-8.798-0.209-13.218 0-109.841 43.417-212.049 113.62-289.993 104.228 149.244 221.295 239.287 351.152 280.973 9.677 3.106 19.405 5.939 29.184 8.499-11.2 25.732-23.202 51.217-36.036 76.518-124.643-40.239-273.727-57.63-457.711-62.78zM81.923 525.453c171.585 5.214 307.757 21.449 419.939 55.96-48.994 87.001-108.269 172.43-178.956 259.040-122.632-60.956-215.154-178.151-240.983-315.001zM384.919 865.558c70.074-87.357 129.137-174.016 178.17-262.523 94.724 38.156 171.17 92.77 238.093 169.407-77.841 69.775-179.721 112.892-289.182 112.892-43.938 0-86.651-6.947-127.081-19.776zM845.862 726.334c-72.346-81.704-154.526-139.662-252.766-180.192 14.182-28.305 27.379-56.853 39.625-85.721 101.035 14.554 206.839 3.273 316.386-26.197 0.149 4.578 0.226 9.169 0.226 13.777 0 104.447-39.258 201.991-103.471 278.334zM941.939 369.83c-101.376 28.237-196.169 39.398-284.804 29.218 37.892-101.871 64.567-208.286 81.323-322.624 103.65 64.627 180.186 171.136 203.482 293.406zM678.242 44.992c-16.367 122.317-44.134 234.999-85.201 342.652-11.456-2.795-22.801-5.995-34.044-9.6-115.878-37.201-224.327-119.356-324.003-265.020 76.145-63.552 173.164-102.357 277.006-102.357 58.406 0 114.654 12.275 166.242 34.325z" />
<glyph unicode="&#xe927;" glyph-name="brand-dribbble-thin" d="M21.333 448c0 265.792 224.874 490.666 490.667 490.666s490.667-224.874 490.667-490.666c0-265.792-224.875-490.667-490.667-490.667s-490.667 224.875-490.667 490.667zM64.653 471.616c-0.433-7.829-0.653-15.701-0.653-23.616 0-117.291 48.245-226.031 125.513-307.004 105.115 154.355 222.933 246.016 353.185 287.825 13.453 4.322 27.012 8.098 40.674 11.354-13.858 32.636-28.988 64.862-45.444 96.806-127.13-42.534-280.777-60.467-473.276-65.365zM69.19 514.415c184.584 4.966 329.63 22.198 448.357 60.771-51.729 93.711-115.181 185.44-191.725 278.541-133.283-63.142-233.284-190.703-256.632-339.312zM366.994 870.776c76.134-93.642 139.481-186.286 191.278-281.117 103.33 40.061 185.852 98.949 257.741 183.657-80.649 75.614-188.16 122.683-304.013 122.683-50.423 0-99.269-8.917-145.006-25.224zM845.897 742.608c-75.601-88.146-162.099-149.267-267.563-190.92 17.348-33.975 33.254-68.279 47.774-103.057 105.545 16.73 216.862 4.433 333.001-28.224 0.593 9.139 0.892 18.338 0.892 27.593 0 111.404-43.524 215.097-114.103 294.608zM954.142 377.463c-110.933 31.898-214.767 44.045-311.753 30.46 41.963-109.696 70.652-224.546 87.77-348.907 115.951 66.705 201.472 183.714 223.983 318.447zM689.86 38.438c-16.755 129.553-46.106 248.363-90.206 361.711-14.805-3.328-29.44-7.305-43.917-11.951-120.751-38.763-232.791-125.018-334.932-277.094 79.053-68.809 181.378-111.104 291.195-111.104 62.711 0 122.978 13.79 177.86 38.438z" />
<glyph unicode="&#xe928;" glyph-name="brand-facebook" d="M685.205 926.464c-26.752-3.029-38.955-5.163-58.027-10.027-67.567-17.322-128.61-54.003-175.616-105.538-47.012-51.535-77.945-115.679-89.001-184.553-1.493-9.387-3.243-27.819-3.883-40.96l-1.152-23.893-122.027-0.896v-225.195l122.027-0.896 0.853-366.080h266.239l0.853 366.080 122.027 0.896v225.195l-122.027 0.896 0.469 11.947c1.536 39.168 26.752 71.552 65.237 83.712 7.552 2.389 18.005 3.115 53.333 3.755l43.947 0.811v265.856l-49.067-0.256c-26.965-0.128-51.371-0.512-54.187-0.853zM724.885 794.027l0.469-69.547h-10.027c-13.653 0-37.163-4.267-51.968-9.429-39.467-13.824-75.52-48.299-90.283-86.443-9.6-24.875-10.325-29.995-11.136-82.048l-0.768-49.067h123.179v-98.987h-122.88v-366.933h-139.945v366.933h-122.88v98.987h122.411l1.024 52.48c1.067 53.589 2.261 65.621 9.513 93.824 13.35 51.072 40.183 97.615 77.692 134.757s84.314 63.515 135.514 76.358c22.677 5.852 45.999 8.82 69.419 8.832l10.24-0.171 0.427-69.547z" />
<glyph unicode="&#xe929;" glyph-name="brand-facebook-thin" d="M680.951 915.413c-67.337-7.159-131.183-33.571-183.893-76.075-39.957-32.534-72.195-73.526-94.395-120.023s-33.809-97.338-33.99-148.863l-0.043-20.053h-122.88v-204.8h122.88v-366.933h245.761v366.933h122.88v204.8h-123.392l1.195 19.669c0.486 10.221 1.984 20.369 4.48 30.293 9.387 30.293 35.584 56.405 66.517 66.389 9.557 3.072 16.683 3.669 51.627 4.395l40.533 0.853v245.333l-41.387-0.213c-22.784-0.128-47.915-0.896-55.893-1.707zM735.565 794.453v-80.213h-9.472c-17.195 0-42.411-3.584-55.381-7.893-22.767-7.672-43.281-20.864-59.703-38.398-16.427-17.534-28.25-38.863-34.419-62.082-3.157-11.691-3.797-19.669-4.437-55.893l-0.768-42.24h123.221v-119.467h-122.88v-366.933h-160.428v366.933h-122.88v119.467h122.411l0.981 47.36c1.28 60.331 4.224 79.915 17.708 117.333 15.659 43.603 41.037 83.071 74.202 115.419 33.169 32.347 73.263 56.726 117.244 71.29 29.525 9.813 61.397 14.763 97.963 15.275l16.64 0.256v-80.213z" />
<glyph unicode="&#xe92a;" glyph-name="grid-4" d="M64 960c35.346 0 64-28.654 64-64s-28.654-64-64-64c-35.346 0-64 28.654-64 64s28.654 64 64 64zM288 960c35.346 0 64-28.654 64-64s-28.654-64-64-64c-35.346 0-64 28.654-64 64s28.654 64 64 64zM512 960c35.346 0 64-28.654 64-64s-28.654-64-64-64c-35.346 0-64 28.654-64 64s28.654 64 64 64zM736 960c35.346 0 64-28.654 64-64s-28.654-64-64-64c-35.346 0-64 28.654-64 64s28.654 64 64 64zM960 960c35.346 0 64-28.654 64-64s-28.654-64-64-64c-35.346 0-64 28.654-64 64s28.654 64 64 64zM64 737.28c35.346 0 64-28.654 64-64s-28.654-64-64-64c-35.346 0-64 28.654-64 64s28.654 64 64 64zM288 737.28c35.346 0 64-28.654 64-64s-28.654-64-64-64c-35.346 0-64 28.654-64 64s28.654 64 64 64zM512 737.28c35.346 0 64-28.654 64-64s-28.654-64-64-64c-35.346 0-64 28.654-64 64s28.654 64 64 64zM736 737.28c35.346 0 64-28.654 64-64s-28.654-64-64-64c-35.346 0-64 28.654-64 64s28.654 64 64 64zM960 737.28c35.346 0 64-28.654 64-64s-28.654-64-64-64c-35.346 0-64 28.654-64 64s28.654 64 64 64zM64 514.56c35.346 0 64-28.654 64-64s-28.654-64-64-64c-35.346 0-64 28.654-64 64s28.654 64 64 64zM288 514.56c35.346 0 64-28.654 64-64s-28.654-64-64-64c-35.346 0-64 28.654-64 64s28.654 64 64 64zM512 514.56c35.346 0 64-28.654 64-64s-28.654-64-64-64c-35.346 0-64 28.654-64 64s28.654 64 64 64zM736 514.56c35.346 0 64-28.654 64-64s-28.654-64-64-64c-35.346 0-64 28.654-64 64s28.654 64 64 64zM960 514.56c35.346 0 64-28.654 64-64s-28.654-64-64-64c-35.346 0-64 28.654-64 64s28.654 64 64 64zM64 291.84c35.346 0 64-28.654 64-64s-28.654-64-64-64c-35.346 0-64 28.654-64 64s28.654 64 64 64zM288 291.84c35.346 0 64-28.654 64-64s-28.654-64-64-64c-35.346 0-64 28.654-64 64s28.654 64 64 64zM512 291.84c35.346 0 64-28.654 64-64s-28.654-64-64-64c-35.346 0-64 28.654-64 64s28.654 64 64 64zM736 291.84c35.346 0 64-28.654 64-64s-28.654-64-64-64c-35.346 0-64 28.654-64 64s28.654 64 64 64zM960 291.84c35.346 0 64-28.654 64-64s-28.654-64-64-64c-35.346 0-64 28.654-64 64s28.654 64 64 64zM64 69.12c35.346 0 64-28.654 64-64s-28.654-64-64-64c-35.346 0-64 28.654-64 64s28.654 64 64 64zM288 69.12c35.346 0 64-28.654 64-64s-28.654-64-64-64c-35.346 0-64 28.654-64 64s28.654 64 64 64zM512 69.12c35.346 0 64-28.654 64-64s-28.654-64-64-64c-35.346 0-64 28.654-64 64s28.654 64 64 64zM736 69.12c35.346 0 64-28.654 64-64s-28.654-64-64-64c-35.346 0-64 28.654-64 64s28.654 64 64 64zM960 69.12c35.346 0 64-28.654 64-64s-28.654-64-64-64c-35.346 0-64 28.654-64 64s28.654 64 64 64z" />
<glyph unicode="&#xe92b;" glyph-name="grid-square-4" d="M0 960h128v-128h-128v128zM224 960h128v-128h-128v128zM448 960h128v-128h-128v128zM672 960h128v-128h-128v128zM896 960h128v-128h-128v128zM0 737.28h128v-128h-128v128zM224 737.28h128v-128h-128v128zM448 737.28h128v-128h-128v128zM672 737.28h128v-128h-128v128zM896 737.28h128v-128h-128v128zM0 514.56h128v-128h-128v128zM224 514.56h128v-128h-128v128zM448 514.56h128v-128h-128v128zM672 514.56h128v-128h-128v128zM896 514.56h128v-128h-128v128zM0 291.84h128v-128h-128v128zM224 291.84h128v-128h-128v128zM448 291.84h128v-128h-128v128zM672 291.84h128v-128h-128v128zM896 291.84h128v-128h-128v128zM0 69.12h128v-128h-128v128zM224 69.12h128v-128h-128v128zM448 69.12h128v-128h-128v128zM672 69.12h128v-128h-128v128zM896 69.12h128v-128h-128v128z" />
<glyph unicode="&#xe92c;" glyph-name="brand-github" d="M247.469 948.224c-15.957-2.517-24.277-10.112-31.403-28.715-11.819-30.976-17.365-68.096-14.635-98.603 1.323-15.189 5.675-40.363 7.509-43.307 0.341-0.597-2.987-5.931-7.467-11.904-26.859-35.931-43.424-78.501-47.915-123.136-3.371-31.701 0.597-88.747 8.661-124.971 23.296-104.619 83.541-165.717 188.672-191.488l18.944-4.651-3.413-13.099c-2.987-11.392-3.541-20.181-4.181-67.2-0.64-48.64-1.024-54.229-3.541-54.997-4.613-1.058-9.268-1.929-13.952-2.603-36.053-5.717-66.091 3.029-88.96 25.856-11.307 11.307-21.077 25.088-46.848 66.219-17.024 27.093-38.699 49.749-55.339 57.728-10.325 4.992-40.064 13.952-46.251 13.952-2.048 0-4.437-6.656-10.069-28.587-2.567-10.138-5.227-20.25-7.979-30.336-0.341-0.939 6.485-3.541 15.189-5.803 8.704-2.219 17.792-5.035 20.139-6.187 6.571-3.285 18.56-17.067 28.843-33.195 38.357-59.989 49.195-74.069 69.504-90.411 21.035-16.939 40.235-26.069 66.219-31.445 14.080-2.901 50.005-3.584 64.512-1.195l8.064 1.323 0.469-87.168 0.427-87.211 63.915-0.939 0.471 173.696 0.469 173.696 3.968 9.813c2.176 5.376 7.509 14.507 11.861 20.309 6.784 9.045 7.979 11.861 8.576 20.224 0.512 6.912-0.128 11.349-2.219 15.531-6.912 13.525-11.947 16.171-38.999 20.352-53.504 8.277-86.4 18.859-113.92 36.651-38.272 24.747-62.165 64.213-73.088 120.832-8.064 41.984-8.917 98.048-1.835 125.781 6.997 27.392 21.76 54.016 45.141 81.451 11.008 12.928 12.544 20.181 7.765 36.309-8.064 27.093-9.045 33.195-9.216 55.467-0.085 15.616 0.768 26.027 2.901 35.157l3.029 13.013 8.619-1.579c22.443-4.096 59.307-20.224 94.037-41.131 11.947-7.211 24.789-13.781 28.544-14.635 5.333-1.195 11.392-0.512 28.247 3.243 45.824 10.283 68.949 12.715 121.173 12.715s75.349-2.432 121.173-12.715c16.469-3.669 22.955-4.437 27.989-3.285 3.627 0.811 15.701 6.997 26.837 13.739 34.347 20.864 73.259 37.845 96.555 42.155l8.064 1.493 2.987-12.971c2.133-9.173 2.944-19.541 2.816-35.2-0.171-22.144-1.152-27.52-11.051-61.611-3.2-11.093 0.213-20.096 13.269-34.901 24.789-28.203 38.016-55.68 44.331-92.075 4.949-28.587 1.067-89.259-8.021-125.184-22.229-87.765-72.149-126.933-181.76-142.635-12.331-1.749-24.747-4.437-27.648-5.931-11.648-6.016-17.835-20.693-15.019-35.669 0.597-3.243 4.864-10.539 9.557-16.384 15.403-19.2 14.336-5.035 14.976-202.027l0.512-173.696 63.872 0.939v171.52c0 158.549-0.213 172.672-3.072 186.667-1.246 5.12-2.099 10.325-2.56 15.573 6.379 1.877 12.809 3.571 19.285 5.077 102.443 25.301 162.987 86.827 185.856 188.885 10.027 44.629 13.483 113.835 7.296 145.664-7.168 36.907-23.253 74.709-43.52 102.229l-9.941 13.483 3.413 12.971c2.816 10.795 3.413 18.816 3.499 47.957 0.171 38.528-1.323 47.573-12.715 79.061-6.187 17.067-10.965 23.637-21.035 28.843-5.973 3.072-9.856 3.584-25.813 3.499-10.573-0.087-21.12-1.058-31.531-2.901-30.208-6.613-71.253-23.68-105.472-43.947l-15.829-9.387-14.037 3.072c-50.569 10.206-102.195 14.175-153.728 11.819-31.36-1.835-68.096-6.485-92.843-11.861l-14.082-3.029-9.813 5.888c-58.837 35.499-122.155 55.637-157.44 50.048z" />
<glyph unicode="&#xe92d;" glyph-name="brand-github-thin" d="M239.351 934.4c-3.526-2.326-6.557-5.328-8.917-8.832-4.864-8.064-13.269-35.755-16.427-54.315-3.797-22.229-2.56-59.477 2.773-82.091l3.84-16.384-8.576-10.923c-17.063-21.489-29.904-46.013-37.845-72.277-8.405-26.155-10.581-42.368-10.496-77.739 0.171-64.512 10.027-113.749 31.573-157.867 30.848-63.019 86.656-102.571 169.941-120.32 9.856-2.091 18.133-4.011 18.347-4.224-0.384-2.718-1.13-5.372-2.219-7.893-7.808-21.931-8.405-28.8-7.936-87.125l0.469-55.765-12.416-2.901c-10.365-2.005-20.858-3.273-31.403-3.797-46.848-2.219-75.733 14.677-107.264 62.72l-27.051 41.173c-14.933 22.741-28.928 37.803-42.283 45.44-8.576 4.907-38.784 14.976-40.32 13.44-1.451-1.451-10.709-37.888-10.069-39.595 0.384-0.981 5.163-2.816 10.667-4.011 22.101-4.907 30.976-13.696 59.221-58.496 30.123-47.829 48.853-68.992 75.136-84.779 11.605-6.955 33.792-14.763 48.853-17.195 15.744-2.517 40.96-2.219 58.88 0.725 8.448 1.408 15.915 2.56 16.64 2.56 0.683 0.043 1.28-39.936 1.28-88.747v-88.789l41.813 0.939 0.213 163.84c0.213 144.043 0.555 165.248 2.987 175.403 3.243 13.696 7.851 23.339 15.958 33.323 7.168 8.832 8.875 17.877 4.907 25.643-4.181 8.064-9.301 10.496-27.777 13.227-87.595 12.928-136.832 37.803-166.997 84.352-14.925 23.467-25.343 49.515-30.72 76.8-7.509 36.352-9.984 95.36-5.12 123.093 5.888 33.664 23.509 69.547 45.781 93.141 11.008 11.691 13.611 19.029 10.325 29.44-8.832 27.989-9.6 32.939-9.771 60.672-0.085 23.125 0.469 29.739 3.797 43.093 3.84 15.317 4.096 15.787 8.832 15.787 22.4 0 69.589-18.688 111.744-44.245 11.264-6.827 23.168-12.757 26.453-13.227 3.285-0.427 12.501 0.725 20.524 2.603 45.611 10.795 85.931 14.677 139.563 13.44 43.051-1.024 71.211-4.309 107.008-12.544 10.539-2.475 21.376-3.968 24.747-3.499 3.285 0.469 15.189 6.4 26.453 13.227 37.845 22.955 81.707 41.216 104.704 43.648 10.283 1.067 10.411 1.024 12.288-3.84 7.595-20.053 10.368-56.107 6.101-80.341-1.766-9.683-4.092-19.256-6.955-28.672-2.688-8.192-3.883-14.805-3.243-18.005 0.555-2.773 5.632-10.24 11.221-16.597 20.578-22.958 35.494-50.414 43.563-80.171 4.309-15.787 4.523-18.816 4.565-55.936 0.043-29.184-0.725-44.203-2.987-58.496-6.187-39.595-15.701-68.608-30.677-93.312-30.848-50.944-78.933-77.184-164.181-89.6-24.875-3.584-30.251-5.76-34.645-13.909-4.053-7.595-1.579-16.768 7.851-29.269 15.787-20.821 14.635-6.485 15.659-199.253l0.896-169.813 41.941-0.939-0.555 172.843c-0.512 169.984-0.555 173.013-4.053 183.936-1.446 4.625-3.025 9.207-4.736 13.739-0.939 2.176 1.664 3.2 14.507 5.632 36.992 7.083 76.501 22.4 102.784 39.851 37.632 24.96 67.115 64.896 82.944 112.341 12.971 38.997 18.901 79.275 18.901 128.811 0 43.691-6.997 75.563-24.021 109.483-7.381 14.763-24.875 41.472-30.379 46.464-3.029 2.773-2.987 3.328 1.152 19.456 3.755 14.635 4.267 20.352 4.437 48.171 0.128 29.269-0.213 32.896-4.565 49.749-5.333 20.395-12.117 38.272-16.341 43.008-5.461 6.144-11.605 7.936-27.307 7.936-36.395 0-79.019-14.507-132.181-45.056l-20.096-11.563-21.717 4.352c-45.141 9.045-60.501 10.411-118.101 10.368-57.344 0-70.357-1.152-116.523-10.325l-21.761-4.309-21.035 12.032c-53.163 30.379-94.891 44.501-131.413 44.501-12.587 0-16.683-0.683-21.163-3.413z" />
<glyph unicode="&#xe92e;" glyph-name="brand-google" d="M10.667 448c0 276.879 224.454 501.333 501.333 501.333 140.271 0 267.136-57.652 358.093-150.472l-45.709-44.794c-79.415 81.041-190.007 131.265-312.384 131.265-241.533 0-437.333-195.801-437.333-437.333s195.801-437.333 437.333-437.333c230.771 0 419.793 178.739 436.181 405.333h-412.715v64h477.867v-32c0-276.881-224.457-501.333-501.333-501.333-276.879 0-501.333 224.452-501.333 501.333z" />
<glyph unicode="&#xe92f;" glyph-name="brand-google-thin" d="M21.333 448c0 270.988 219.679 490.666 490.667 490.666 137.289 0 261.444-56.414 350.477-147.27l-30.477-29.862c-81.335 83.005-194.641 134.466-320 134.466-247.424 0-448-200.576-448-448s200.576-448 448-448c240.273 0 436.365 189.15 447.501 426.667h-424.034v42.667h467.2v-21.333c0-270.989-219.678-490.667-490.667-490.667s-490.667 219.678-490.667 490.667z" />
<glyph unicode="&#xe930;" glyph-name="brand-instagram" d="M226.987 864c-72.342 0-130.987-58.645-130.987-130.987v-570.027c0-72.341 58.645-130.987 130.987-130.987h570.027c72.341 0 130.987 58.645 130.987 130.987v570.027c0 72.342-58.645 130.987-130.987 130.987h-570.027zM32 733.013c0 107.688 87.299 194.987 194.987 194.987h570.027c107.686 0 194.987-87.299 194.987-194.987v-570.027c0-107.686-87.3-194.987-194.987-194.987h-570.027c-107.688 0-194.987 87.3-194.987 194.987v570.027zM512.021 619.5c-94.729 0-171.521-76.792-171.521-171.521s76.792-171.52 171.521-171.52c94.729 0 171.52 76.791 171.52 171.52s-76.791 171.521-171.52 171.521zM276.5 447.979c0 130.075 105.446 235.521 235.521 235.521s235.52-105.446 235.52-235.521c0-130.074-105.446-235.52-235.52-235.52-130.075 0-235.521 105.446-235.521 235.52zM776.512 651.523c33.698 0 61.013 27.316 61.013 61.013s-27.315 61.013-61.013 61.013c-33.694 0-61.013-27.317-61.013-61.013s27.319-61.013 61.013-61.013z" />
<glyph unicode="&#xe931;" glyph-name="brand-instagram-thin" d="M226.987 874.667c-78.233 0-141.653-63.42-141.653-141.653v-570.027c0-78.234 63.42-141.653 141.653-141.653h570.027c78.234 0 141.653 63.42 141.653 141.653v570.027c0 78.233-63.42 141.653-141.653 141.653h-570.027zM42.667 733.013c0 101.797 82.523 184.32 184.32 184.32h570.027c101.798 0 184.32-82.523 184.32-184.32v-570.027c0-101.798-82.522-184.32-184.32-184.32h-570.027c-101.797 0-184.32 82.522-184.32 184.32v570.027zM511.979 630.167c-100.619 0-182.187-81.568-182.187-182.188 0-100.617 81.568-182.187 182.187-182.187 100.617 0 182.187 81.57 182.187 182.187 0 100.62-81.57 182.188-182.187 182.188zM287.125 447.979c0 124.184 100.67 224.855 224.854 224.855 124.181 0 224.853-100.67 224.853-224.855 0-124.181-100.672-224.853-224.853-224.853-124.183 0-224.854 100.672-224.854 224.853zM776.555 651.529c33.698 0 61.013 27.316 61.013 61.013s-27.315 61.013-61.013 61.013c-33.698 0-61.013-27.317-61.013-61.013s27.315-61.013 61.013-61.013z" />
<glyph unicode="&#xe932;" glyph-name="brand-linkedin" d="M0 448v-481.28h991.573v962.56h-991.573v-481.28zM928.427 448v-416.427h-875.52v832.853h875.52v-416.427zM247.467 729.003c-4.853-2.581-9.137-6.112-12.597-10.383s-6.025-9.195-7.541-14.478c-1.517-5.283-1.955-10.818-1.288-16.273s2.425-10.722 5.17-15.484c7.723-13.227 19.072-19.584 35.029-19.584 21.461 0 37.888 14.336 40.363 35.243 2.901 24.619-15.317 44.885-40.363 44.885-6.494 0.365-12.969-0.989-18.773-3.925zM233.813 387.413v-224.427h64.853v448.853h-64.853v-224.427zM397.653 387.413v-224.427h62.763l0.853 141.227c0.939 157.525 0.171 147.712 13.397 174.464 25.899 52.352 93.013 74.837 145.707 48.811 22.101-10.923 43.008-32.128 52.48-53.291 10.069-22.4 9.813-17.835 9.813-170.752v-140.459h64.853v132.096c0 79.189-0.725 139.008-1.792 149.376-3.132 32.61-15.39 63.676-35.362 89.644-19.977 25.966-46.861 45.78-77.577 57.172-22.656 8.32-29.952 9.429-61.909 9.344-28.245-0.085-31.915-0.469-45.44-4.608-18.347-5.632-36.437-14.123-51.456-24.235-3.977-2.801-8.111-5.38-12.373-7.723-0.427 0-0.811 10.752-0.811 23.893v23.893h-63.147v-224.427z" />
<glyph unicode="&#xe933;" glyph-name="brand-linkedin-thin" d="M0 447.147v-470.187h981.333v940.373h-981.333v-470.187zM938.667 447.147v-427.52h-896v855.040h896v-427.52zM247.040 728.619c-4.817-2.595-9.061-6.135-12.478-10.41s-5.935-9.193-7.405-14.464c-1.47-5.271-1.861-10.784-1.15-16.209s2.51-10.651 5.289-15.365c3.681-6.329 9.014-11.537 15.429-15.067s13.667-5.249 20.984-4.973c7.316 0.276 14.42 2.537 20.55 6.541s11.055 9.6 14.249 16.188c2.559 4.954 4.058 10.387 4.404 15.952s-0.471 11.142-2.397 16.375c-1.926 5.233-4.92 10.007-8.791 14.021s-8.535 7.177-13.696 9.29c-9.472 3.968-25.429 3.115-34.987-1.877zM244.864 609.749c-0.469-1.195-0.64-102.4-0.384-224.896l0.427-222.72h42.667v448.853l-20.949 0.469c-15.787 0.384-21.12-0.043-21.76-1.707zM408.32 386.987l0.427-224.853 41.643-0.939 0.597 142.976c0.512 129.877 0.853 143.915 3.541 153.216 12.459 42.795 42.24 73.771 83.072 86.485 18.432 5.717 51.541 5.717 69.973 0 19.925-6.187 33.323-14.549 49.664-30.848 15.531-15.573 24.832-30.037 31.189-48.512 3.541-10.325 3.627-13.355 4.48-156.459l0.853-145.92h42.667v141.653c0 158.805 0.299 154.112-12.544 185.6-15.287 37.999-44.45 68.765-81.579 86.059-21.675 10.325-38.144 14.293-63.744 15.36-17.195 0.725-24.491 0.256-37.589-2.475-29.666-5.856-57.169-19.71-79.531-40.064l-10.88-10.197v73.771h-42.667l0.427-224.853z" />
<glyph unicode="&#xe934;" glyph-name="brand-messenger" d="M10.667 471.467c0 262.245 231.253 477.867 501.333 477.867s501.333-215.621 501.333-477.867c0-262.246-231.253-477.867-501.333-477.867-63.612 0-123.84 13.76-178.547 34.505l-159.36-78.17c-11.578-5.679-25.434-3.853-35.147 4.634s-13.381 21.969-9.307 34.206l45.26 135.94c-95.014 85.367-164.231 209.975-164.231 346.752zM512 885.333c-238.021 0-437.333-190.168-437.333-413.867 0-121.745 65.685-235.891 157.731-311.825 10.203-8.418 14.176-22.246 9.998-34.795l-27.904-83.81 103.436 50.739c8.185 4.015 17.693 4.348 26.139 0.913 52.394-21.291 109.065-35.089 167.932-35.089 238.020 0 437.333 190.17 437.333 413.867s-199.313 413.867-437.333 413.867zM791.206 564.718l-206.174-180.402-141.99 94.665-192.996-150.106-39.293 50.517 229.404 178.427 139.61-93.073 169.293 148.136 42.146-48.165z" />
<glyph unicode="&#xe935;" glyph-name="brand-messenger-thin" d="M21.333 471.467c0 255.82 225.93 467.2 490.667 467.2 264.738 0 490.667-211.379 490.667-467.2s-225.929-467.2-490.667-467.2c-63.731 0-124.163 14.157-179.069 35.465l-163.536-80.218c-7.719-3.785-16.956-2.569-23.431 3.089-6.475 5.653-8.921 14.647-6.205 22.801l47.484 142.622c-95.907 83.853-165.909 207.799-165.909 343.441zM512 896c-243.364 0-448-194.411-448-424.533 0-125.572 67.65-242.543 161.61-320.055 6.802-5.611 9.451-14.827 6.665-23.194l-35.947-107.968 126.297 61.948c5.457 2.675 11.796 2.897 17.426 0.61 53.367-21.687 111.412-35.874 171.948-35.874 243.366 0 448 194.411 448 424.533s-204.638 424.533-448 424.533zM784.183 572.745l-200.026-175.023-141.598 94.4-199.063-154.829-26.195 33.681 223.337 173.705 140.002-93.334 175.441 153.51 28.1-32.11z" />
<glyph unicode="&#xe936;" glyph-name="brand-pinterest" d="M10.667 448c0 276.879 224.454 501.333 501.333 501.333 276.877 0 501.333-224.455 501.333-501.333 0-276.877-224.457-501.333-501.333-501.333-276.879 0-501.333 224.457-501.333 501.333zM512 885.333c-241.533 0-437.333-195.801-437.333-437.333 0-148.48 73.995-279.68 187.121-358.729l221.647 438.861 57.131-28.851-64.589-127.881c13.965-46.571 56.99-79.134 106.423-79.134 96.256 0 179.2 69.21 179.2 155.733v46.933c0 109.338-93.329 202.667-202.667 202.667h-93.867c-109.338 0-202.667-93.329-202.667-202.667v-46.933c0-38.874 17.446-73.818 57.334-106.731l-40.735-49.365c-51.112 42.18-80.599 93.995-80.599 156.096v46.933c0 144.683 121.983 266.667 266.667 266.667h93.867c144.683 0 266.667-121.983 266.667-266.667v-46.933c0-131.209-121.724-219.733-243.2-219.733-57.732 0-109.914 28.181-142.025 72.64l-123.45-244.429c58.727-29.316 124.974-45.811 195.075-45.811 241.532 0 437.333 195.802 437.333 437.333s-195.802 437.333-437.333 437.333z" />
<glyph unicode="&#xe937;" glyph-name="brand-pinterest-thin" d="M21.333 448c0 270.988 219.679 490.666 490.667 490.666s490.667-219.679 490.667-490.666c0-270.989-219.678-490.667-490.667-490.667s-490.667 219.678-490.667 490.667zM512 896c-247.424 0-448-200.576-448-448 0-156.501 80.247-294.259 201.839-374.37l227.119 449.694 38.084-19.234-66.453-131.58c13.931-53.261 62.161-90.91 117.811-90.91 100.459 0 189.867 72.427 189.867 166.4v46.933c0 115.229-98.103 213.333-213.333 213.333h-93.867c-115.229 0-213.333-98.105-213.333-213.333v-46.933c0-42.743 19.453-80.499 61.211-114.961l-27.156-32.909c-49.241 40.636-76.721 89.643-76.721 147.87v46.933c0 138.792 117.207 256 256 256h93.867c138.795 0 256-117.207 256-256v-46.933c0-123.763-115.26-209.067-232.533-209.067-60.54 0-114.581 32.998-143.138 83.435l-136.632-270.537c62.486-33.092 133.74-51.831 209.37-51.831 247.424 0 448 200.576 448 448s-200.576 448-448 448z" />
<glyph unicode="&#xe938;" glyph-name="brand-reddit" d="M491.456 856.536c7.262 6.080 16.845 8.631 26.167 6.966l251.435-44.898c12.608 26.825 39.872 45.396 71.475 45.396 43.593 0 78.933-35.34 78.933-78.933s-35.341-78.933-78.933-78.933c-32.478 0-60.369 19.612-72.486 47.639l-224.047 40.008v-165.465c96.734-6.172 183.505-39.933 249.152-88.44 23.040 26.060 56.738 42.525 94.315 42.525 69.513 0 125.867-56.35 125.867-125.867 0-58.543-39.966-107.75-94.106-121.826 0.158-3.187 0.239-6.387 0.239-9.587 0-80.58-50.261-150.353-123.46-198.46-73.553-48.337-173.726-77.594-284.011-77.594-110.282 0-210.451 29.257-284.003 77.594-73.199 48.107-123.459 117.879-123.459 198.46 0 3.2 0.079 6.4 0.237 9.587-54.137 14.076-94.103 63.283-94.103 121.826 0 69.517 56.352 125.867 125.867 125.867 37.578 0 71.272-16.465 94.315-42.524 65.644 48.507 152.414 82.267 249.152 88.439v203.685c0 9.471 4.194 18.455 11.456 24.535zM182.675 497.754c-11.348 12.693-27.834 20.646-46.141 20.646-34.168 0-61.867-27.699-61.867-61.867 0-27.665 18.16-51.089 43.209-59.004 13.25 36.011 35.764 70.071 64.799 100.224zM906.125 397.53c25.050 7.915 43.209 31.339 43.209 59.004 0 34.167-27.699 61.867-61.867 61.867-18.308 0-34.795-7.953-46.144-20.646 29.035-30.157 51.55-64.213 64.802-100.224zM840.533 800c-8.247 0-14.933-6.686-14.933-14.933s6.686-14.933 14.933-14.933c8.247 0 14.933 6.686 14.933 14.933s-6.686 14.933-14.933 14.933zM264.951 485.457c-62.735-47.761-96.418-107.371-96.418-160.337 0-51.93 32.541-104.183 94.609-144.977 61.715-40.559 149.278-67.076 248.853-67.076 99.58 0 187.145 26.517 248.858 67.076 62.071 40.794 94.613 93.047 94.613 144.977 0 52.966-33.685 112.576-96.422 160.337-62.042 47.232-149.094 79.877-247.049 79.877-97.948 0-185.001-32.645-247.044-79.877zM394.666 377.6h-46.933v64h46.933v-64zM676.267 377.6h-46.933v64h46.933v-64zM330.668 296.636l29.489-12.425c45.376-19.119 86.878-30.345 151.843-30.345s106.466 11.226 151.842 30.345l29.491 12.425 24.845-58.982-29.487-12.42c-52.215-21.999-102.148-35.366-176.691-35.366-74.547 0-124.476 13.367-176.691 35.366l-29.489 12.42 24.849 58.982z" />
<glyph unicode="&#xe939;" glyph-name="brand-reddit-thin" d="M498.304 848.358c4.843 4.053 11.23 5.754 17.446 4.644l259.972-46.423c9.011 27.162 34.624 46.755 64.811 46.755 37.7 0 68.267-30.564 68.267-68.267s-30.566-68.266-68.267-68.266c-30.259 0-55.919 19.684-64.87 46.946-1.506-0.058-3.042 0.044-4.587 0.32l-237.743 42.453-0.004-188.314c100.996-4.378 191.326-39.537 258.022-90.312 1.199-0.913 2.385-1.83 3.571-2.752 20.975 28.253 54.605 46.592 92.544 46.592 63.625 0 115.2-51.576 115.2-115.2 0-56.644-40.883-103.74-94.754-113.391 0.589-5.99 0.887-12.002 0.887-18.022 0-75.806-47.309-142.656-118.652-189.547-71.582-47.040-169.651-75.84-278.153-75.84-108.498 0-206.566 28.8-278.145 75.84-71.343 46.891-118.651 113.741-118.651 189.547 0 6.020 0.299 12.032 0.885 18.022-53.869 9.651-94.752 56.747-94.752 113.391 0 63.625 51.577 115.2 115.2 115.2 37.94 0 71.566-18.339 92.544-46.592 1.182 0.922 2.371 1.839 3.567 2.752 66.697 50.775 157.024 85.934 258.017 90.312l0.004 213.795c0 6.314 2.795 12.304 7.637 16.357zM196.815 496.896c-13.033 19.422-35.185 32.171-60.281 32.171-40.059 0-72.533-32.474-72.533-72.533 0-36.075 26.336-65.997 60.831-71.595 12.895 40.265 38.129 78.605 71.984 111.957zM899.17 384.939c34.492 5.598 60.83 35.52 60.83 71.595 0 40.060-32.474 72.533-72.533 72.533-25.097 0-47.249-12.749-60.284-32.175 33.856-33.348 59.089-71.689 71.987-111.953zM840.533 810.667c-14.14 0-25.6-11.462-25.6-25.6s11.46-25.6 25.6-25.6c14.14 0 25.6 11.461 25.6 25.6s-11.46 25.6-25.6 25.6zM258.49 493.943c-64.367-49.003-100.623-111.428-100.623-168.823 0-56.704 35.494-111.876 99.418-153.89 63.688-41.856 153.352-68.83 254.711-68.83 101.363 0 191.027 26.974 254.716 68.83 63.927 42.014 99.422 97.186 99.422 153.89 0 57.395-36.258 119.821-100.625 168.823-63.91 48.653-153.233 82.057-253.513 82.057-100.275 0-189.599-33.404-253.506-82.057zM394.666 388.267h-46.933v42.667h46.933v-42.667zM676.267 388.267h-46.933v42.667h46.933v-42.667zM336.356 282.662l19.66-8.282c46.516-19.597 89.424-31.181 155.984-31.181s109.466 11.584 155.985 31.181l19.657 8.282 16.567-39.317-19.661-8.286c-51.076-21.517-99.601-34.526-172.548-34.526s-121.475 13.009-172.55 34.526l-19.66 8.286 16.566 39.317z" />
<glyph unicode="&#xe93a;" glyph-name="brand-skype" d="M10.667 652.058c0 164.186 133.088 297.275 297.275 297.275 56.841 0 110.083-16.022 155.281-43.776 15.697 1.763 31.979 2.965 48.777 2.965 254.298 0 460.523-206.18 460.523-460.522 0-16.768-1.173-33.054-2.978-48.823 27.733-45.171 43.789-98.359 43.789-155.234 0-164.19-133.133-297.276-297.276-297.276-56.879 0-110.080 16.021-155.294 43.763-15.748-1.779-32.021-2.953-48.764-2.953-254.339 0-460.522 206.182-460.522 460.523 0 16.772 1.172 33.050 2.952 48.798-27.745 45.186-43.764 98.388-43.764 155.26zM307.942 885.333c-128.841 0-233.275-104.435-233.275-233.275 0-48.127 14.561-92.754 39.492-129.848 4.352-6.473 6.189-14.315 5.165-22.050-2.333-17.609-3.846-34.863-3.846-52.16 0-218.995 177.528-396.523 396.522-396.523 17.254 0 34.509 1.515 52.117 3.844 7.731 1.024 15.569-0.806 22.042-5.154 37.141-24.943 81.775-39.501 129.899-39.501 128.802 0 233.276 104.439 233.276 233.276 0 48.111-14.592 92.74-39.531 129.847-4.369 6.494-6.199 14.362-5.158 22.118 2.364 17.557 3.878 34.799 3.878 52.092 0 218.991-177.57 396.522-396.523 396.522-17.267 0-34.513-1.547-52.228-3.854-7.714-1.005-15.526 0.835-21.986 5.174-37.087 24.93-81.755 39.492-129.844 39.492zM465.067 603.733c-34.167 0-61.867-27.699-61.867-61.867s27.699-61.867 61.867-61.867h93.867c69.513 0 125.867-56.354 125.867-125.867s-56.354-125.867-125.867-125.867h-74.428c-50.982 0-99.881 20.254-135.933 56.307l45.255 45.252c24.050-24.047 56.669-37.559 90.678-37.559h74.428c34.167 0 61.867 27.699 61.867 61.867s-27.699 61.867-61.867 61.867h-93.867c-69.514 0-125.867 56.354-125.867 125.867s56.352 125.867 125.867 125.867h74.428c50.982 0 99.883-20.254 135.932-56.306l-45.252-45.255c-24.051 24.049-56.67 37.561-90.679 37.561h-74.428z" />
<glyph unicode="&#xe93b;" glyph-name="brand-skype-thin" d="M21.333 652.058c0 158.295 128.313 286.608 286.609 286.608 56.117 0 108.576-16.19 152.803-44.133 16.567 1.963 33.664 3.322 51.255 3.322 248.405 0 449.856-201.405 449.856-449.855 0-17.57-1.327-34.662-3.341-51.29 27.93-44.207 44.151-96.614 44.151-152.768 0-158.298-128.354-286.609-286.609-286.609-56.154 0-108.574 16.188-152.823 44.122-16.606-1.984-33.694-3.311-51.234-3.311-248.448 0-449.855 201.408-449.855 449.856 0 17.574 1.326 34.662 3.312 51.268-27.936 44.221-44.123 96.639-44.123 152.79zM307.942 896c-134.732 0-243.942-109.21-243.942-243.942 0-50.314 15.231-97.003 41.306-135.796 2.901-4.318 4.126-9.545 3.443-14.703-2.371-17.903-3.938-35.648-3.938-53.559 0-224.883 182.304-407.189 407.188-407.189 17.869 0 35.614 1.566 53.521 3.938 5.15 0.683 10.377-0.542 14.69-3.439 38.844-26.082 85.534-41.31 135.846-41.31 134.694 0 243.942 109.214 243.942 243.942 0 50.304-15.266 96.994-41.344 135.795-2.914 4.331-4.134 9.579-3.439 14.75 2.406 17.865 3.972 35.601 3.972 53.513 0 224.883-182.345 407.188-407.189 407.188-17.89 0-35.635-1.603-53.606-3.943-5.141-0.669-10.351 0.556-14.656 3.449-38.792 26.074-85.521 41.306-135.796 41.306zM465.067 614.4c-40.059 0-72.533-32.474-72.533-72.534s32.474-72.533 72.533-72.533h93.867c63.625 0 115.2-51.575 115.2-115.2s-51.575-115.2-115.2-115.2h-74.428c-48.154 0-94.339 19.132-128.39 53.18l30.17 30.17c26.050-26.048 61.382-40.683 98.221-40.683h74.428c40.060 0 72.533 32.474 72.533 72.533s-32.474 72.533-72.533 72.533h-93.867c-63.623 0-115.2 51.575-115.2 115.2s51.577 115.2 115.2 115.2h74.428c48.154 0 94.34-19.13 128.393-53.182l-30.174-30.17c-26.048 26.050-61.38 40.685-98.219 40.685h-74.428z" />
<glyph unicode="&#xe93c;" glyph-name="brand-snapchat" d="M476.181 917.12c-50.775-4.48-95.788-19.669-134.7-45.483-18.859-12.501-46.464-39.253-59.776-57.941-32.256-45.227-57.515-122.752-67.755-207.872l-2.901-24.149-10.368-2.091c-55.979-11.307-95.701-37.632-114.603-76.032-14.123-28.715-18.987-59.691-13.611-86.315 3.029-15.019 12.587-37.419 20.395-47.744 9.216-12.16 25.771-27.435 39.211-36.096l14.464-9.387c1.451-0.939-18.645-35.627-31.957-55.211-34.432-50.688-35.584-52.821-40.405-76.715-7.808-38.571 4.907-89.728 28.117-112.853 17.536-17.493 34.475-22.485 86.315-25.429 52.779-3.029 78.080-6.741 98.517-14.421 5.888-2.219 25.643-10.709 43.947-18.816 73.429-32.683 114.305-42.453 178.391-42.539 61.44-0.085 97.835 8.747 174.080 42.411 19.712 8.661 41.216 17.749 47.829 20.096 14.976 5.419 38.613 9.216 71.637 11.52 76.203 5.333 81.28 6.101 99.499 14.933 28.032 13.653 45.781 49.067 47.659 95.275 1.408 34.091-5.333 54.485-28.8 86.912-14.080 19.541-28.373 41.984-38.656 60.757l-7.125 12.971 3.883 1.749c9.771 4.437 28.629 18.133 38.613 28.032 31.829 31.488 42.453 71.893 30.763 116.608-14.464 55.168-55.467 91.947-120.405 108.032l-17.28 4.267-2.005 17.28c-8.576 73.216-30.933 150.101-55.979 192.341-25.587 42.98-63.369 77.388-108.544 98.859-49.536 23.595-105.6 32.64-168.448 27.051zM552.128 851.755c35.968-5.504 63.957-16.043 90.411-33.963 13.653-9.259 37.163-32.043 46.379-44.928 31.445-44.032 55.125-132.736 59.733-223.957 1.067-20.949 1.365-22.528 4.693-23.296 1.963-0.427 13.952-2.389 26.624-4.309 43.52-6.613 65.621-14.507 83.029-29.739 17.152-15.019 27.008-37.077 25.899-58.069-1.536-29.184-20.437-46.592-72.277-66.603-7.386-2.633-14.622-5.666-21.675-9.088-1.707-1.664 13.525-42.155 23.979-63.744 11.051-22.784 26.581-48.427 46.080-76.117 8.576-12.16 16.469-24.363 17.493-27.051 5.547-14.208 4.779-38.059-1.835-55.637-4.864-12.971-9.131-14.549-45.824-16.725-85.461-5.035-107.904-9.387-155.563-30.165l-40.96-17.877c-46.080-20.096-75.051-26.923-119.467-28.16-35.968-1.024-58.027 1.365-89.6 9.728-23.724 6.272-34.433 10.325-77.527 29.312-19.157 8.448-42.581 17.92-52.053 21.077-21.12 7.083-54.187 12.032-95.701 14.421-37.376 2.133-47.957 3.243-53.077 5.547-8.576 3.925-15.232 27.264-13.995 49.323 0.896 16.853 2.816 21.077 20.651 46.251 31.872 45.056 48.725 76.672 65.152 122.368 3.456 9.643 6.016 17.749 5.717 18.048-6.085 2.731-12.245 5.295-18.475 7.68-38.741 15.403-59.008 29.483-69.077 48-8.917 16.341-7.552 43.605 2.987 61.227 15.744 26.283 40.192 37.931 96.811 46.037 13.611 1.963 26.368 3.925 28.331 4.352 3.328 0.683 3.669 2.219 4.736 23.381 4.864 94.72 27.989 182.443 60.032 227.627 4.053 5.717 13.397 16 20.736 22.869 30.763 28.843 65.493 44.8 113.153 52.011 19.797 2.987 65.579 3.072 84.48 0.171z" />
<glyph unicode="&#xe93d;" glyph-name="brand-snapchat-thin" d="M487.241 906.88c-53.077-2.688-101.078-17.92-140.758-44.715-16.64-11.221-42.24-35.925-55.083-53.163-24.405-32.683-47.829-94.891-60.117-159.616-3.328-17.579-9.429-63.573-9.429-71.253 0-3.029-0.299-5.547-0.683-5.547-0.341 0-6.997-1.195-14.805-2.688-54.229-10.283-93.099-35.328-110.933-71.552-13.483-27.392-17.835-61.013-11.093-86.187 5.589-20.779 19.413-42.197 37.675-58.368 8.021-7.125 25.6-18.688 33.109-21.76 2.901-1.237 5.291-2.901 5.291-3.755 0-6.101-27.136-52.267-47.488-80.768-6.991-9.591-13.444-19.563-19.328-29.867-16.299-32.725-14.805-75.947 3.968-113.536 6.528-13.056 14.635-21.419 27.349-28.203 12.971-6.912 27.776-9.429 69.888-11.819 64.171-3.627 82.603-7.893 134.059-31.019 54.784-24.576 90.752-36.053 129.665-41.387 71.979-9.899 131.115-0.811 204.843 31.531 70.699 31.019 73.6 32.043 105.643 36.395 10.411 1.451 33.451 3.413 51.2 4.395 40.363 2.304 56.576 4.395 68.779 8.917 19.925 7.381 31.104 18.261 39.552 38.528 10.837 26.069 14.336 55.637 9.387 78.848-4.139 19.371-9.088 29.525-26.752 54.741-18.56 26.539-36.693 56.064-44.416 72.32l-4.821 10.155 11.477 6.101c40.491 21.376 63.147 50.603 68.693 88.405 4.736 32.384-8.533 72.064-33.024 98.645-22.613 24.533-50.859 39.339-92.16 48.384-5.231 0.993-10.402 2.275-15.488 3.84-1.028 6.572-1.852 13.175-2.475 19.797-7.765 72.875-28.544 146.389-54.229 191.957-14.507 25.728-41.131 54.955-66.859 73.472-38.528 27.691-90.795 46.037-137.557 48.256-7.74 0.36-15.479 0.787-23.211 1.28-3.285 0.213-16.725-0.128-29.867-0.768zM555.507 861.867c45.483-6.443 85.547-25.301 117.376-55.296 20.395-19.243 33.024-37.376 45.909-65.877 20.309-45.013 36.437-118.485 39.936-182.229 0.683-12.032 1.877-22.229 2.731-22.741 0.811-0.512 11.221-2.389 23.211-4.224 11.947-1.835 28.629-5.291 37.035-7.68 48.64-13.739 77.696-46.507 77.696-87.637 0-20.309-4.309-30.379-19.456-45.44-13.227-13.141-26.795-20.949-56.064-32.384-14.891-5.803-16.555-6.912-15.616-10.069 0.597-1.963 4.864-13.141 9.472-24.875 13.013-33.067 29.952-62.464 64.555-111.787 11.392-16.256 14.592-26.709 14.379-46.933-0.213-18.688-5.888-38.187-13.44-46.037-6.4-6.699-13.781-8.405-44.416-10.411-96.939-6.272-108.544-8.832-174.933-38.272-48.896-21.675-72.704-29.739-103.253-34.987-24.597-4.599-49.707-5.79-74.624-3.541-49.749 4.523-75.692 12.203-143.83 42.411-14.572 6.579-29.373 12.642-44.373 18.176-17.92 6.016-45.184 10.539-76.8 12.885-64.299 4.651-69.589 5.248-75.221 7.893-18.688 8.875-26.837 59.947-13.653 85.632 2.261 4.437 9.941 16.128 16.981 25.984 17.351 24.427 32.785 50.163 46.165 76.971 9.941 20.949 20.267 49.493 18.56 51.157-4.836 2.598-9.856 4.834-15.019 6.699-36.437 14.421-57.685 30.336-67.84 50.901-4.821 9.771-5.632 13.397-6.144 27.008-0.896 24.661 5.163 41.685 20.779 58.197 19.243 20.352 45.781 30.208 102.059 37.931l14.677 2.048 1.195 22.443c4.736 87.851 28.032 175.317 59.051 221.483 15.317 22.827 44.416 47.573 72.491 61.696 41.558 20.864 103.51 28.928 160.428 20.907z" />
<glyph unicode="&#xe93e;" glyph-name="brand-spotify" d="M512 885.333c-236.376 0-437.333-200.994-437.333-437.333s200.957-437.333 437.333-437.333c236.378 0 437.333 200.994 437.333 437.333s-200.956 437.333-437.333 437.333zM10.667 448c0 271.682 229.608 501.333 501.333 501.333 271.727 0 501.333-229.651 501.333-501.333 0-271.68-229.606-501.333-501.333-501.333-271.726 0-501.333 229.653-501.333 501.333zM526.886 593.587c-106.621 8.732-215.164-4.32-304.191-35.775l-21.321 60.344c98.432 34.778 216.123 48.603 330.734 39.217 114.5-9.377 228.352-42.132 317.837-102.911l-35.964-52.941c-77.978 52.967-180.361 83.325-287.095 92.066zM753.31 342.016c-131.059 94.080-289.178 114.551-515.702 74.475l-11.15 63.019c235.101 41.596 413.427 22.711 564.172-85.504l-37.321-51.989zM482.79 291.947c-78.469 7.71-158.28 0.802-223.181-15.019l-15.158 62.178c71.763 17.493 158.813 24.964 244.594 16.538 85.581-8.41 172.279-32.887 241.335-81.442l-36.809-52.356c-57.169 40.196-132.109 62.374-210.782 70.101z" />
<glyph unicode="&#xe93f;" glyph-name="brand-spotify-thin" d="M512 896c-242.267 0-448-205.77-448-448s205.733-448 448-448c242.266 0 448 205.769 448 448s-205.734 448-448 448zM21.333 448c0 265.792 224.833 490.666 490.667 490.666s490.667-224.875 490.667-490.666c0-265.792-224.832-490.667-490.667-490.667s-490.667 224.875-490.667 490.667zM527.757 604.218c-107.953 8.841-218.021-4.34-308.615-36.348l-14.214 40.23c96.864 34.224 213.030 47.92 326.31 38.643 113.207-9.271 225.148-41.626 312.713-101.103l-23.974-35.294c-79.898 54.269-184.188 85.027-292.22 93.873zM759.531 350.677c-134.34 96.439-295.829 116.646-523.781 76.318l-7.433 42.014c233.674 41.34 408.629 22.191 556.093-83.669l-24.879-34.662zM483.831 302.562c-79.686 7.829-160.704 0.828-226.748-15.27l-10.106 41.451c70.619 17.216 156.463 24.593 241.027 16.286 84.429-8.299 169.169-32.393 236.241-79.552l-24.538-34.906c-59.153 41.591-136.051 64.149-215.876 71.991z" />
<glyph unicode="&#xe940;" glyph-name="brand-telegram" d="M1001.86 856.548c8.704-7.277 12.902-18.618 11.038-29.808l-134.097-804.57c-1.783-10.714-8.879-19.789-18.842-24.102-9.963-4.318-21.436-3.285-30.473 2.735l-402.283 268.19c-7.465 4.975-12.497 12.855-13.873 21.717s1.030 17.899 6.633 24.9l139.433 174.293-230.79-153.86c-9.555-6.37-21.79-7.134-32.061-1.997l-268.19 134.093c-11.466 5.734-18.404 17.758-17.631 30.554s9.107 23.893 21.179 28.207l938.669 335.237c10.679 3.816 22.588 1.69 31.287-5.588zM124.050 491.849l184.509-92.254 386.836 257.888c13.129 8.752 30.673 6.629 41.335-5.001s11.26-29.295 1.399-41.615l-246.383-307.985 332.062-221.376 117.009 702.045-816.767-291.702z" />
<glyph unicode="&#xe941;" glyph-name="brand-telegram-thin" d="M995.021 848.366c5.798-4.852 8.597-12.413 7.356-19.872l-134.097-804.57c-1.186-7.142-5.918-13.193-12.561-16.068-6.643-2.88-14.289-2.193-20.314 1.822l-402.287 268.194c-4.975 3.315-8.329 8.567-9.246 14.477s0.687 11.93 4.421 16.597l182.353 227.942-287.954-191.97c-6.37-4.245-14.527-4.753-21.374-1.331l-268.19 134.097c-7.644 3.819-12.269 11.836-11.754 20.365s6.071 15.932 14.119 18.803l938.665 335.24c7.125 2.544 15.061 1.126 20.864-3.725zM96.922 493.487l212.403-106.202 391.983 261.323c8.755 5.834 20.45 4.419 27.558-3.334s7.505-19.53 0.934-27.744l-253.653-317.068 355.473-236.983 122.701 736.221-857.399-306.214z" />
<glyph unicode="&#xe942;" glyph-name="brand-tiktok" d="M553.886 917.333h64v-22.895c0-171.989 139.426-311.415 311.415-311.415v-64.001c-129.66 0-243.964 65.732-311.415 165.688v-477.1c0-144.115-116.83-260.945-260.943-260.945-144.115 0-260.943 116.83-260.943 260.945 0 144.111 116.828 260.941 260.943 260.941v-64c-108.768 0-196.943-88.175-196.943-196.941 0-108.77 88.175-196.945 196.943-196.945s196.943 88.175 196.943 196.945v709.722z" />
<glyph unicode="&#xe943;" glyph-name="brand-tiktok-thin" d="M564.553 917.333h42.667v-22.895c0-177.88 144.201-322.081 322.082-322.081v-42.668c-139.516 0-260.736 78.33-322.082 193.409v-515.487c0-138.227-112.051-250.278-250.276-250.278-138.224 0-250.276 112.051-250.276 250.278 0 138.223 112.052 250.274 250.276 250.274v-42.667c-114.659 0-207.61-92.949-207.61-207.607 0-114.662 92.95-207.612 207.61-207.612s207.61 92.949 207.61 207.612v709.722z" />
<glyph unicode="&#xe944;" glyph-name="brand-twitch" d="M53.333 906.667h935.782v-578.010l-212.471-212.476h-337.566l-135.719-158.34c-8.715-10.167-22.839-13.833-35.398-9.186s-20.898 16.619-20.898 30.012v137.515h-193.73v790.485zM117.333 842.667v-662.485h193.73v-115.012l98.58 115.012h340.489l174.985 174.985v487.501h-807.782zM537.66 366.127v339.026h64v-339.026h-64zM731.388 366.127v339.026h64v-339.026h-64z" />
<glyph unicode="&#xe945;" glyph-name="brand-twitch-thin" d="M64 896h914.449v-562.927l-206.225-206.225h-338.052l-138.911-162.065c-5.81-6.78-15.226-9.22-23.599-6.123s-13.932 11.081-13.932 20.006v148.181h-193.73v769.152zM106.667 853.333v-683.819h193.73v-133.18l114.152 133.18h340.003l181.231 181.231v502.588h-829.116zM548.326 366.127v339.026h42.667v-339.026h-42.667zM742.054 366.127v339.026h42.667v-339.026h-42.667z" />
<glyph unicode="&#xe946;" glyph-name="brand-twitter" horiz-adv-x="1067" d="M1026.867 904.907c12.16-4.208 20.612-15.287 21.466-28.123 3.814-57.54 1.075-101.143-12.215-138.601-12.019-33.886-31.723-60.079-57.267-85.907v-34.479c0-336.841-281.626-628.463-619.229-628.463-116.358 0-223.465 18.176-334.722 92.463-11.724 7.825-16.944 22.404-12.854 35.895s16.527 22.716 30.624 22.716c120.973 0 220.287 48.401 278.483 89.728-134.208 56.004-227.095 142.234-272.1 249.933-50.678 121.279-38.028 263.534 34.539 408.892 5.688 11.393 17.59 18.33 30.306 17.663s23.828-8.81 28.293-20.736c29.995-80.109 143.273-232.323 356.097-246.367v15.718c0 132.997 106.645 251.428 242.765 251.428 63.228 0 120.717-24.743 163.277-65.002 31.949 8.22 63.458 26.809 88.286 54.404 8.602 9.564 22.097 13.046 34.253 8.838zM933.862 697.804c21.487 21.819 34.236 40.065 41.937 61.775 4.659 13.134 7.791 28.437 9.22 47.72-27.021-16.567-56.606-27.536-86.592-32.077l-16.994-2.575-11.533 12.752c-31.851 35.225-77.764 57.267-128.849 57.267-97.515 0-178.765-86.431-178.765-187.428v-80.762h-32c-217.729 0-352.787 124.282-415.959 225.349-41.284-109.782-41.561-210.514-6.224-295.078 41.742-99.891 135.79-183.475 286.032-233.63 10.513-3.511 18.461-12.211 21.009-22.997s-0.667-22.123-8.498-29.969c-40.031-40.090-132.499-104.738-256.337-130.564 66.782-26.313 134.457-34.253 209.311-34.253 301.008 0 555.229 261.705 555.229 564.463v50.753c0 13.049 7.808 24.273 19.012 29.254z" />
<glyph unicode="&#xe947;" glyph-name="brand-twitter-thin" horiz-adv-x="1067" d="M1023.377 894.827c8.107-2.805 13.743-10.191 14.31-18.749 3.78-57.004 0.947-98.898-11.622-134.33-11.772-33.187-31.407-58.793-57.882-85.059v-38.893c0-331.162-277.060-617.797-608.563-617.797-115.035 0-219.852 17.924-328.799 90.667-7.816 5.218-11.296 14.938-8.57 23.932s11.018 15.142 20.416 15.142c134.886 0 243.376 58.752 300.085 103.202-141.759 54.891-238.278 142.157-283.86 251.238-49.188 117.715-37.322 256.669 34.24 400.015 3.792 7.596 11.727 12.22 20.204 11.775s15.885-5.873 18.862-13.824c31.586-84.359 151.402-244.314 376.754-253.888v26.979c0 127.664 102.413 240.762 232.098 240.762 62.443 0 119.019-25.259 160.051-66.068 36.066 7.92 71.748 28.221 99.439 59.002 5.734 6.376 14.733 8.697 22.835 5.892zM939.874 688.717c23.040 23.132 37.376 43.040 45.978 67.296 6.716 18.926 10.317 41.561 10.688 71.917-30.204-22.345-64.738-36.865-99.708-42.161l-11.332-1.716-7.689 8.501c-33.783 37.365-82.53 60.78-136.759 60.78-103.949 0-189.431-91.764-189.431-198.095v-70.095h-21.333c-226.885 0-361.872 137.823-417.844 238.847-49.921-119.604-52.998-230.467-14.182-323.357 43.231-103.458 140.17-188.783 292.496-239.637 7.009-2.338 12.308-8.137 14.007-15.33 1.699-7.189-0.445-14.75-5.665-19.977-42.432-42.5-146.677-114.244-285.38-133.649 79.144-38.528 158.003-49.374 245.903-49.374 307.106 0 565.896 266.692 565.896 575.13v50.753c0 9.339 5.999 17.277 14.357 20.167z" />
<glyph unicode="&#xe948;" glyph-name="brand-whatsapp" d="M481.993 948.011c-90.741-5.348-178.311-35.305-253.313-86.656-75.008-51.541-136.363-124.587-173.013-205.909-57.472-127.573-59.904-269.227-6.912-399.232 9.515-23.296 25.984-54.955 39.936-76.629l10.453-16.299-43.477-86.955c-23.936-47.787-43.989-89.6-44.587-92.885-3.755-19.925 16.427-40.107 36.352-36.352 3.285 0.597 45.099 20.651 92.885 44.587l86.955 43.477 16.299-10.453c95.957-61.568 217.857-88.96 330.028-74.155 113.92 15.019 212.565 63.317 292.523 143.317 81.579 81.536 128.384 178.603 144.469 299.52 2.773 20.949 2.773 88.277 0 109.227-15.957 119.936-62.592 217.216-142.763 297.899-50.039 50.729-110.366 90.144-176.926 115.588-66.556 25.443-137.792 36.325-208.909 31.911zM552.094 883.157c89.788-8.166 174.844-43.962 243.452-102.46 68.604-58.499 117.393-136.824 139.652-224.196 10.496-41.472 12.757-60.501 12.757-108.501s-2.261-67.029-12.757-108.501c-44.331-175.232-192.768-304.725-373.376-325.888-25.301-2.944-71.936-3.285-95.573-0.683-79.566 8.7-155.283 38.81-219.095 87.125l-13.227 10.112-58.283-29.184c-32.043-16-58.624-28.8-59.051-28.373s12.331 26.965 28.331 58.923l29.099 58.155-14.933 20.48c-32.713 44.604-56.608 95.040-70.4 148.608-47.957 189.781 33.152 385.963 200.576 485.248 79.197 46.893 171.176 67.588 262.828 59.136zM361.629 696.405c-11.691-3.243-26.027-11.563-44.971-26.197-25.088-19.413-24.021-16.213-23.851-70.315 0.171-49.664 1.877-65.067 11.008-101.12 31.872-125.739 133.207-227.072 258.945-258.944 36.053-9.131 51.456-10.837 101.12-11.008 39.851-0.128 45.867 0.213 50.645 2.816 5.248 2.901 25.088 25.088 36.139 40.448 15.915 22.144 16.555 58.368 1.451 84.139-5.333 9.131-20.565 23.723-29.525 28.288-11.563 5.888-23.851 8.491-74.539 15.744-56.96 8.149-62.976 7.979-84.693-2.773-10.624-5.248-17.109-10.581-40.32-33.365l-27.648-27.093-15.147 10.709c-19.499 13.696-54.828 49.024-68.524 68.48l-10.667 15.147 27.948 28.629c29.184 29.867 34.475 37.419 39.552 56.491 1.323 5.035 2.432 12.928 2.475 17.493 0 15.104-11.819 102.528-15.232 112.512-12.8 37.205-56.407 60.331-94.167 49.92zM392.733 628.907c2.347-3.243 4.352-14.251 8.277-45.44 2.859-22.613 5.163-44.117 5.163-47.787 0-6.187-1.28-7.936-17.024-23.637-9.344-9.301-17.365-16.555-17.835-16.128-2.045 5.773-3.769 11.657-5.163 17.621-6.518 26.581-9.699 53.87-9.472 81.237v25.429l9.771 6.997c8.107 5.803 10.923 6.912 16.469 6.485 4.821-0.384 7.595-1.707 9.813-4.779zM645.107 336c24.064-3.413 45.269-7.296 47.445-8.619 4.608-2.901 7.723-10.069 6.485-15.061-0.512-1.963-3.797-7.253-7.296-11.776l-6.4-8.235-35.925 0.853c-23.637 0.555-40.533 1.792-49.536 3.627-14.464 2.987-38.741 9.429-40.021 10.667-0.427 0.384 6.869 8.363 16.171 17.707 12.459 12.544 18.091 17.024 21.248 17.024 2.389 0.043 23.893-2.773 47.829-6.187z" />
<glyph unicode="&#xe949;" glyph-name="brand-whatsapp-thin" d="M460.791 935.851c-111.413-11.549-215.429-61.191-294.484-140.544-49.835-49.621-83.542-100.309-109.611-164.693-59.776-147.712-42.88-316.757 45.27-452.224l9.386-14.464-44.928-89.941c-47.402-94.891-48.17-96.768-41.813-106.411 1.872-2.726 4.23-5.082 6.955-6.955 9.643-6.357 11.52-5.589 106.41 41.813l89.942 44.928 14.464-9.387c171.605-111.659 392.020-106.837 556.329 12.16 220.032 159.317 269.739 465.621 111.147 684.587-40.597 56.374-92.719 103.472-152.905 138.17s-127.061 56.203-196.194 63.089c-21.589 2.133-78.805 2.048-99.968-0.128zM578.551 891.008c178.603-27.691 324.096-159.531 367.445-332.971 10.283-41.173 12.245-59.051 12.245-110.037 0-35.499-0.64-49.621-3.157-65.707-28.757-186.411-167.339-333.525-351.104-372.736-60.745-12.254-123.324-12.237-184.062 0.043-62.502 13.286-121.49 39.633-173.099 77.312-7.040 5.248-13.653 9.515-14.635 9.515s-32.597-15.403-70.272-34.219c-37.632-18.859-68.779-33.92-69.206-33.493s14.635 31.573 33.493 69.205c18.816 37.675 34.219 69.291 34.219 70.315s-4.565 8.149-10.112 15.787c-24.262 33.719-44.040 70.451-58.838 109.269-8.149 21.973-17.067 56.235-21.845 83.883-3.328 19.243-3.84 28.416-3.883 69.12-0.043 53.504 1.835 70.485 12.757 113.493 39.68 156.587 165.078 281.941 321.707 321.707 14.080 3.584 34.814 7.723 46.078 9.216l25.6 3.413c12.843 1.792 89.643-0.469 106.667-3.115zM367.311 686.933c-10.453-2.219-24.363-10.24-43.904-25.301-12.8-9.899-17.579-14.677-19.115-19.115-2.517-7.339-2.731-43.52-0.512-76.501 5.135-81.95 39.307-159.386 96.384-218.411 31.103-32.341 60.287-53.803 99.028-72.789 50.517-24.789 92.8-34.347 160.341-36.139 49.109-1.365 48.299-1.579 65.408 18.432 23.168 27.179 28.8 39.979 27.264 61.909-0.563 15.714-6.912 30.669-17.835 41.984-15.488 16.768-21.803 18.944-79.019 27.349-79.915 11.691-80.64 11.477-128.043-35.243l-30.037-29.611-14.379 9.557c-34.219 22.741-60.67 49.152-85.076 84.949l-10.411 15.232 30.422 30.848c46.334 47.019 46.505 47.531 37.161 121.045-3.669 28.928-7.595 53.077-9.515 58.624-5.845 16.597-17.237 28.715-35.028 37.333-13.408 6.428-28.5 8.473-43.136 5.845zM396.196 640.64c3.063-2.31 5.631-5.212 7.552-8.533 3.968-7.723 14.763-96.128 12.672-103.851-1.195-4.395-7.936-12.331-25.344-29.696l-23.765-23.68-3.712 9.941c-11.563 30.891-17.11 66.261-17.152 108.587v31.872l10.198 7.851c5.589 4.309 12.715 8.96 15.787 10.368 3.896 1.485 8.095 2.001 12.235 1.503s8.097-1.995 11.53-4.361zM649.207 346.112c48.341-6.912 52.181-8.235 57.771-19.328 5.931-11.819 3.371-21.077-10.283-37.077l-7.637-8.96h-17.28c-47.36 0-94.933 7.552-126.251 20.053l-6.528 2.645 21.035 21.248c11.605 11.691 23.381 22.699 26.197 24.491 7.083 4.48 12.544 4.181 62.976-3.072z" />
<glyph unicode="&#xe94a;" glyph-name="brand-x" d="M778.449 864h141.141l-308.352-352.427 362.752-479.573h-284.032l-222.464 290.859-254.55-290.859h-141.227l329.813 376.96-347.989 455.040h291.243l201.089-265.856 232.576 265.856zM728.913 116.48h78.208l-504.833 667.477h-83.925l510.55-667.477z" />
<glyph unicode="&#xe94b;" glyph-name="brand-youtube" d="M226.987 782.507c-72.342 0-130.987-58.645-130.987-130.987v-407.040c0-72.341 58.645-130.987 130.987-130.987h570.027c72.341 0 130.987 58.645 130.987 130.987v407.040c0 72.342-58.645 130.987-130.987 130.987h-570.027zM32 651.52c0 107.688 87.299 194.987 194.987 194.987h570.027c107.686 0 194.987-87.299 194.987-194.987v-407.040c0-107.686-87.3-194.987-194.987-194.987h-570.027c-107.688 0-194.987 87.3-194.987 194.987v407.040zM317 662.777l429.526-214.764-429.526-214.763v429.527zM381 559.223v-222.421l222.417 111.211-222.417 111.21z" />
<glyph unicode="&#xe94c;" glyph-name="brand-youtube-thin" d="M226.987 793.173c-78.233 0-141.653-63.42-141.653-141.653v-407.040c0-78.234 63.42-141.653 141.653-141.653h570.027c78.234 0 141.653 63.42 141.653 141.653v407.040c0 78.233-63.42 141.653-141.653 141.653h-570.027zM42.667 651.52c0 101.797 82.523 184.32 184.32 184.32h570.027c101.798 0 184.32-82.523 184.32-184.32v-407.040c0-101.798-82.522-184.32-184.32-184.32h-570.027c-101.797 0-184.32 82.522-184.32 184.32v407.040zM327.667 645.518l395.008-197.505-395.008-197.504v395.009zM370.333 576.482v-256.939l256.939 128.469-256.939 128.469z" />
<glyph unicode="&#xe94d;" glyph-name="checkmark" d="M981.333 701.255l-604.877-620.189-333.789 343.437 127.739 130.515 206.273-212.235 477.137 489.216 127.518-130.745z" />
<glyph unicode="&#xe94e;" glyph-name="close" d="M825.562 38.737l-314.816 314.816-314.818-314.816-94.445 94.447 314.816 314.816-314.816 314.816 94.445 94.445 314.818-314.816 314.816 314.816 94.443-94.445-314.816-314.816 314.816-314.816-94.443-94.447z" />
<glyph unicode="&#xe94f;" glyph-name="delivery-truck" d="M0 469.333v-320h135.18l2.096-8.107c8.429-31.957 42.503-63.915 77.871-73.003 13.915-3.584 44.599-3.584 58.514 0 34.921 8.96 66.497 38.187 77.157 71.296l3.122 9.813h316.166l3.209-9.813c10.752-33.365 42.061-62.336 77.026-71.296 13.914-3.584 44.599-3.584 58.513 0 35.366 9.088 69.44 41.045 77.871 73.003l2.095 8.107h135.181v243.2l-93.077 49.493-42.684 81.493-42.637 81.493v184.32h-845.602v-320zM801.894 683.52v-64l-177.506-0.896v-211.541l282.807-0.896 30.281-16.085c16.683-8.875 33.361-17.92 37.018-20.096l6.737-3.968-0.491-86.613-0.448-86.571h-90.581l-3.789 11.179c-10.436 30.933-39.159 58.795-70.289 68.352-16.367 4.992-45.227 6.229-61.414 2.603-38.711-8.704-72.563-39.723-81.749-74.88l-2.099-8.107h-316.564l-3.077 10.667c-8.652 30.080-37.463 58.539-70.645 69.76-16.769 5.675-52.226 5.76-70.779 0.213-31.888-9.6-59.763-36.395-70.957-68.139l-4.103-11.648h-90.537l-0.446 275.627c-0.268 151.595-0.089 276.608 0.401 277.76 0.669 1.707 77.514 2.048 379.54 1.707l378.691-0.427v-64zM842.927 514.56c18.15-34.731 33.003-63.915 33.003-64.853 0-1.152-34.607-1.579-103.915-1.28l-103.919 0.427-0.491 62.293c-0.222 34.261-0.043 63.232 0.401 64.427 0.67 1.664 16.503 2.133 71.407 2.133h70.511l33.003-63.147zM263.136 232.448c17.884-5.376 33.762-18.261 41.522-33.664 4.772-9.472 7.136-25.088 5.575-36.907-4.549-34.176-41.12-59.648-76.845-53.461-52.627 9.131-74.213 70.4-37.508 106.283 9.856 9.643 17.438 14.421 27.696 17.493 9.589 2.901 30.417 3.029 39.56 0.256zM806.848 229.931c11.904-5.12 28.587-20.821 33.357-31.36 14.409-32.085 1.207-68.949-30.191-84.181-8.009-3.763-16.717-5.978-25.626-6.519-8.905-0.538-17.835 0.614-26.274 3.383-8.439 2.773-16.226 7.108-22.908 12.766-6.686 5.653-12.139 12.518-16.043 20.194-4.147 8.277-4.685 11.52-4.685 27.307 0 15.573 0.58 19.029 4.373 26.453 8.503 16.158 23.253 28.506 41.118 34.432 9.946 3.328 36.663 1.92 46.878-2.475z" />
<glyph unicode="&#xe950;" glyph-name="dislike" d="M0.083 293.141c0-11.78 9.551-21.333 21.333-21.333h85.333c16.974 0 33.253 6.746 45.255 18.748s18.745 28.279 18.745 45.252v512.002c0 16.974-6.743 33.253-18.745 45.255s-28.281 18.745-45.255 18.745h-85.333c-11.782 0-21.333-9.551-21.333-21.333s9.551-21.333 21.333-21.333h85.333c5.658 0 11.084-2.248 15.085-6.249s6.248-9.427 6.248-15.085v-512.002c0-5.658-2.248-11.081-6.248-15.083s-9.427-6.251-15.085-6.251h-85.333c-11.782 0-21.333-9.549-21.333-21.333zM568.23-23.659c21.402-5.76 44.147-3.814 64.252 5.504 20.109 9.318 36.297 25.412 45.734 45.466s11.52 42.782 5.884 64.218l-37.636 142.69c-2.496 9.472-2.786 19.392-0.849 28.996 1.941 9.6 6.059 18.628 12.036 26.389 5.982 7.757 13.662 14.042 22.451 18.364 8.789 4.326 18.453 6.571 28.25 6.571h209.178c16.606 0.090 32.956 4.049 47.761 11.567 14.801 7.518 27.644 18.389 37.504 31.744 9.86 13.359 16.465 28.834 19.294 45.193 2.701 15.633 1.882 31.667-2.394 46.929-0.145 0.858-0.341 1.707-0.593 2.543l-80.73 270.937c-0.158 1.014-0.388 2.017-0.691 3-17.011 55.229-40.772 104.139-76.668 139.355-36.553 35.858-84.25 56.094-145.617 56.094-29.867 0-56.405 0.277-80.427 0.527-81.971 0.855-134.639 1.404-190.118-10.391-72.105-15.329-149.19-51.325-305.088-130.474-10.505-5.334-14.698-18.174-9.364-28.68s18.174-14.699 28.68-9.365c157.233 79.827 229.076 112.845 294.647 126.784 50.492 10.735 97.148 10.266 177.472 9.457 24.563-0.247 52.271-0.526 84.198-0.526 50.927 0 87.671-16.351 115.738-43.884 28.326-27.789 49.178-68.332 65.109-119.321 0.145-0.888 0.346-1.766 0.606-2.631l80.794-271.149c0.145-0.849 0.346-1.685 0.597-2.513 2.884-9.536 3.503-19.614 1.805-29.427-1.698-9.818-5.662-19.102-11.575-27.115-5.918-8.013-13.623-14.537-22.502-19.046-8.866-4.506-18.662-6.882-28.604-6.942h-209.007c0 0 0 0 0 0-16.324 0.004-32.435-3.746-47.087-10.948-14.647-7.206-27.447-17.681-37.414-30.613-9.963-12.932-16.828-27.981-20.062-43.981-3.23-16.004-2.748-32.538 1.417-48.324l37.628-142.66c3.089-11.75 1.946-24.209-3.226-35.2s-14.046-19.814-25.067-24.922c-11.021-5.107-23.488-6.174-35.217-3.017-11.729 3.162-21.978 10.342-28.941 20.297l-0.047 0.068-208.554 295.462c-0.001 0 0.001 0 0 0-9.847 13.956-22.904 25.344-38.068 33.207-15.165 7.859-31.997 11.964-49.078 11.964h-105.218c-11.782 0-21.333-9.549-21.333-21.333 0-11.78 9.551-21.333 21.333-21.333h105.214c0.001 0 0 0 0 0 10.249 0 20.349-2.462 29.447-7.177 9.099-4.719 16.932-11.55 22.841-19.925l208.512-295.403c0.009-0.013 0.013-0.026 0.021-0.038 12.71-18.133 31.39-31.228 52.774-36.988z" />
<glyph unicode="&#xe951;" glyph-name="dropdown" d="M511.957 320.913l-421.448 425.754-90.51-90.51 512-506.824 512 506.312-91.021 91.021-421.022-425.754z" />
<glyph unicode="&#xe952;" glyph-name="dropdown-up" d="M511.957 575.085l-421.448-425.751-90.51 90.509 512 506.825 512-506.313-91.021-91.021-421.022 425.751z" />
<glyph unicode="&#xe953;" glyph-name="email" d="M46.545 758.924c0 85.345 69.186 154.531 154.531 154.531h621.848c85.342 0 154.53-69.186 154.53-154.531v-621.848c0-85.342-69.188-154.53-154.53-154.53h-621.848c-85.345 0-154.531 69.188-154.531 154.53v621.848zM201.076 960c-111.052 0-201.076-90.025-201.076-201.076v-621.848c0-111.049 90.025-201.075 201.076-201.075h621.848c111.049 0 201.075 90.027 201.075 201.075v621.848c0 111.052-90.027 201.076-201.075 201.076h-621.848zM379.46 753.47c64.149 27.596 135.326 34.433 203.558 19.552s130.099-50.734 176.934-102.536c46.831-51.802 76.288-116.957 84.241-186.34v-0.004c7.194-62.976-3.742-126.699-31.526-183.667l-0.149-0.299c-8.388-16.593-21.252-30.507-37.141-40.166-15.851-9.638-34.082-14.66-52.634-14.498-26.743 0.034-52.39 10.671-71.305 29.585-16.713 16.713-26.965 38.682-29.146 62.020-28.275-28.113-67.238-45.487-110.263-45.487-86.374 0-156.393 70.020-156.393 156.395 0 86.373 70.019 156.392 156.393 156.392 42.803 0 81.587-17.195 109.828-45.053v66.426h46.545v-175.299c0.013-0.819 0.017-1.643 0.017-2.466s-0.004-1.647-0.017-2.47v-99.038c0-14.443 5.739-28.297 15.949-38.507 10.214-10.214 24.064-15.953 38.511-15.953h0.23c9.903-0.098 19.639 2.577 28.1 7.723 8.418 5.12 15.245 12.48 19.716 21.261 23.838 48.96 33.22 103.701 27.042 157.807-6.848 59.733-32.205 115.826-72.525 160.424-40.324 44.597-93.585 75.463-152.324 88.274-58.743 12.811-120.021 6.925-175.249-16.833s-101.642-64.199-132.736-115.655c-31.095-51.457-45.313-111.35-40.663-171.293s27.935-116.928 66.593-162.974c38.658-46.046 90.752-78.848 148.983-93.803 58.231-14.959 119.684-11.324 175.748 10.394l16.811-43.401c-65.118-25.229-136.499-29.449-204.139-12.075-67.638 17.374-128.148 55.471-173.051 108.954-44.903 53.487-71.95 119.676-77.351 189.303s11.114 139.197 47.232 198.966c36.118 59.77 90.029 106.743 154.18 134.34zM512.030 338.176c59.977 0 108.723 48.068 109.828 107.78v4.139c-1.105 59.712-49.852 107.777-109.828 107.777-60.668 0-109.848-49.179-109.848-109.847s49.18-109.85 109.848-109.85z" />
<glyph unicode="&#xe954;" glyph-name="expand-horizontal" d="M6.417 448.102c0 14.135 11.462 25.6 25.6 25.6h960c14.14 0 25.6-11.465 25.6-25.6 0-14.14-11.46-25.6-25.6-25.6h-960c-14.138 0-25.6 11.46-25.6 25.6zM210.118 626.202c9.998-9.997 9.998-26.206 0-36.204l-141.898-141.896 141.898-141.901c9.998-9.997 9.998-26.206 0-36.203s-26.206-9.997-36.204 0l-160 160c-9.997 9.997-9.997 26.206 0 36.203l160 160.001c9.997 9.997 26.206 9.997 36.204 0zM813.914 626.202c9.997 9.997 26.206 9.997 36.207 0l160-160.001c9.997-9.997 9.997-26.206 0-36.203l-160-160c-10.001-9.997-26.21-9.997-36.207 0s-9.997 26.206 0 36.203l141.901 141.901-141.901 141.896c-9.997 9.998-9.997 26.207 0 36.204z" />
<glyph unicode="&#xe955;" glyph-name="expand-horizontal-left-right" d="M608.098 953.701c14.14 0 25.6-11.462 25.6-25.6v-959.998c0-14.14-11.46-25.6-25.6-25.6-14.135 0-25.6 11.46-25.6 25.6v959.998c0 14.138 11.465 25.6 25.6 25.6zM416.1 953.701c14.138 0 25.598-11.462 25.598-25.6v-959.998c0-14.14-11.46-25.6-25.598-25.6s-25.6 11.46-25.6 25.6v959.998c0 14.138 11.462 25.6 25.6 25.6zM6.5 448.102c0 14.135 11.462 25.6 25.6 25.6h384c14.138 0 25.598-11.465 25.598-25.6 0-14.14-11.46-25.6-25.598-25.6h-384c-14.138 0-25.6 11.46-25.6 25.6zM582.498 448.102c0 14.135 11.465 25.6 25.6 25.6h384c14.14 0 25.6-11.465 25.6-25.6 0-14.14-11.46-25.6-25.6-25.6h-384c-14.135 0-25.6 11.46-25.6 25.6zM210.202 626.202c9.997-9.997 9.997-26.206 0-36.204l-141.898-141.896 141.898-141.901c9.997-9.997 9.997-26.206 0-36.203s-26.207-9.997-36.204 0l-160 160c-9.997 9.997-9.997 26.206 0 36.203l160 160.001c9.997 9.997 26.206 9.997 36.204 0zM813.999 626.202c9.997 9.997 26.206 9.997 36.203 0l160-160.001c9.997-9.997 9.997-26.206 0-36.203l-160-160c-9.997-9.997-26.206-9.997-36.203 0s-9.997 26.206 0 36.203l141.897 141.901-141.897 141.896c-9.997 9.998-9.997 26.207 0 36.204z" />
<glyph unicode="&#xe956;" glyph-name="expand-vertical" d="M512.017 953.701c14.14 0 25.6-11.462 25.6-25.6v-959.998c0-14.14-11.46-25.6-25.6-25.6s-25.6 11.46-25.6 25.6v959.998c0 14.138 11.46 25.6 25.6 25.6zM333.915 146.202c9.997 9.997 26.206 9.997 36.204 0l141.899-141.897 141.897 141.897c9.997 9.997 26.206 9.997 36.207 0 9.997-9.997 9.997-26.206 0-36.203l-160-160c-10.001-9.997-26.21-9.997-36.207 0l-159.999 160c-9.998 9.997-9.998 26.206 0 36.203zM493.914 946.202c9.997 9.997 26.206 9.997 36.207 0l160-160c9.997-9.997 9.997-26.206 0-36.204-10.001-9.997-26.21-9.997-36.207 0l-141.897 141.898-141.899-141.898c-9.997-9.997-26.206-9.997-36.204 0s-9.998 26.207 0 36.204l159.999 160z" />
<glyph unicode="&#xe957;" glyph-name="expand-vertical-2" d="M472.58 828.801c9.997 9.998 26.206 9.998 36.207 0l128-128c9.997-9.997 9.997-26.206 0-36.204-10.001-9.998-26.21-9.998-36.207 0l-109.897 109.898-109.899-109.898c-9.997-9.998-26.206-9.998-36.204 0s-9.998 26.206 0 36.204l127.999 128zM490.684 836.3c14.14 0 25.6-11.462 25.6-25.6v-725.332c0-14.14-11.46-25.6-25.6-25.6s-25.6 11.46-25.6 25.6v725.332c0 14.138 11.46 25.6 25.6 25.6zM344.582 231.501c9.997 9.997 26.206 9.997 36.204 0l109.899-109.897 109.897 109.897c9.997 9.997 26.206 9.997 36.207 0 9.997-9.997 9.997-26.206 0-36.203l-128-128c-10.001-9.997-26.21-9.997-36.207 0l-127.999 128c-9.998 9.997-9.998 26.206 0 36.203zM209.083-42.598c0 14.135 11.462 25.6 25.6 25.6h554.667c14.14 0 25.6-11.465 25.6-25.6 0-14.14-11.46-25.6-25.6-25.6h-554.667c-14.138 0-25.6 11.46-25.6 25.6zM209.083 938.699c0 14.138 11.462 25.6 25.6 25.6h554.667c14.14 0 25.6-11.462 25.6-25.6s-11.46-25.6-25.6-25.6h-554.667c-14.138 0-25.6 11.461-25.6 25.6z" />
<glyph unicode="&#xe958;" glyph-name="filter" d="M56.874 942.208c-15.104-4.736-29.355-17.493-36.566-32.725-3.499-7.339-3.968-10.837-3.883-28.843 0.171-43.392 13.483-104.405 34.262-157.013 57.003-144.213 171.307-252.63 315.093-298.71l25.003-8.021 0.469-211.029 0.427-210.987 4.523-9.643c14.72-31.36 55.041-43.605 83.372-25.259 4.224 2.731 37.632 30.933 74.24 62.635 64.128 55.552 66.773 58.069 72.533 69.376l5.973 11.776 0.469 156.587 0.469 156.544 24.96 8.021c44.045 14.025 85.888 34.21 124.288 59.947 29.312 19.541 45.568 33.109 76.032 63.659 50.274 49.542 89.399 109.239 114.773 175.104 20.736 52.523 34.048 113.408 34.304 157.013 0.128 19.2-0.171 21.077-4.693 30.208-6.758 12.504-17.122 22.687-29.739 29.226l-8.064 3.712-450.56 0.299c-367.318 0.299-451.884-0.085-457.686-1.877zM952.875 887.595c0.512-1.365-0.128-11.904-1.451-23.467-18.005-158.080-111.787-293.803-250.197-362.027-26.82-13.504-55.070-23.953-84.224-31.147-22.656-5.931-27.904-8.533-34.091-16.768-3.456-4.693-3.499-6.101-3.968-170.837l-0.427-166.144-63.915-55.168c-35.115-30.379-64.896-55.211-66.091-55.211-1.792 0-2.389 41.515-3.072 221.312-0.853 220.203-0.853 221.355-4.352 226.048-6.101 8.107-11.221 10.624-34.049 16.683-28.966 7.258-57.062 17.63-83.797 30.933-128.683 62.976-220.245 186.411-246.315 331.904-4.267 23.808-7.125 50.432-5.845 53.845 1.451 3.712 880.385 3.755 881.793 0.043z" />
<glyph unicode="&#xe959;" glyph-name="flag" d="M10.772 956.672c-11.733-7.168-10.795 39.040-10.325-511.146l0.427-497.493 5.333-5.376c3.312-3.614 7.906-5.79 12.8-6.059 9.045-0.896 14.592 1.749 19.797 9.472l3.883 5.803v202.411l19.2 5.931c150.229 46.677 165.675 49.92 229.973 48.299 74.88-1.877 131.371-18.389 199.681-58.325 10.795-6.315 25.472-14.421 32.597-18.005 93.67-46.976 201.045-58.948 302.763-33.749 40.149 9.941 151.595 42.581 160.043 46.891 16.768 8.491 31.275 27.691 35.285 46.677 1.493 6.955 1.835 84.651 1.451 301.227l-0.512 291.84-3.968 9.856c-4.651 11.52-18.987 27.861-30.123 34.389-12.237 6.77-26.15 9.908-40.107 9.045-6.656-0.555-35.584-7.893-71.723-18.219-33.323-9.515-69.803-19.115-81.067-21.376-83.004-15.89-168.913-4.905-245.248 31.36-11.46 5.685-22.733 11.747-33.792 18.176-22.699 13.099-54.741 29.568-68.309 34.987-89.801 35.924-188.819 41.807-282.241 16.768-15.445-4.181-114.645-34.261-121.771-36.907-1.664-0.64-2.133 8.064-2.133 39.936 0 37.376-0.299 41.173-3.328 46.165-1.341 2.414-3.158 4.531-5.342 6.222s-4.688 2.921-7.361 3.615c-2.673 0.694-5.459 0.838-8.19 0.423s-5.348-1.38-7.694-2.837zM319.423 871.21c60.501-5.931 109.356-21.845 165.889-54.016 14.208-8.064 33.152-18.389 42.069-22.869 80.341-40.491 177.365-54.699 267.349-39.211 23.253 4.011 34.731 6.955 101.291 25.941 58.965 16.853 63.488 17.451 73.984 9.429 12.331-9.387 11.435 16.128 10.923-304.682-0.427-288.299-0.427-288.427-3.925-293.163-1.963-2.56-5.504-6.144-7.893-7.979-4.096-3.029-104.747-32.811-148.181-43.819-42.24-10.667-82.731-14.635-122.709-11.947-69.035 4.651-124.373 22.229-187.989 59.733-50.227 30.11-105.855 50.112-163.756 58.88-24.448 3.797-81.835 5.205-106.155 2.645-40.491-4.267-66.005-10.496-155.819-38.272l-40.96-12.672-0.427 308.992c-0.256 169.941-0.213 309.248 0.085 309.504 0.768 0.811 113.963 35.541 131.755 40.491 46.981 12.996 95.922 17.404 144.469 13.013z" />
<glyph unicode="&#xe95a;" glyph-name="furniture-air-coinditioning" d="M42.667 643.282c0 9.969 8.082 18.051 18.051 18.051h902.563c9.971 0 18.052-8.082 18.052-18.051v-406.153c0-9.971-8.081-18.052-18.052-18.052h-902.563c-9.969 0-18.051 8.081-18.051 18.052v406.153zM78.769 625.231v-370.050h866.46v370.050h-866.46zM132.923 553.026c0 9.969 8.082 18.051 18.051 18.051h90.257c9.969 0 18.051-8.081 18.051-18.051s-8.081-18.051-18.051-18.051h-90.257c-9.969 0-18.051 8.082-18.051 18.051zM181.083 337.399c3.348 5.022 8.984 8.038 15.020 8.038h631.793c6.037 0 11.674-3.017 15.023-8.038l45.129-67.695c5.53-8.294 3.285-19.503-5.009-25.033s-19.503-3.29-25.033 5.009l-39.77 59.652h-612.472l-39.77-59.652c-5.53-8.299-16.737-10.539-25.033-5.009s-10.537 16.738-5.007 25.033l45.128 67.695z" />
<glyph unicode="&#xe95b;" glyph-name="furniture-air-coinditioning-on" d="M42.667 771.282c0 9.969 8.082 18.051 18.051 18.051h902.563c9.971 0 18.052-8.082 18.052-18.051v-406.153c0-9.971-8.081-18.052-18.052-18.052h-902.563c-9.969 0-18.051 8.081-18.051 18.052v406.153zM78.769 753.231v-370.050h866.46v370.050h-866.46zM132.923 681.026c0 9.969 8.082 18.051 18.051 18.051h90.257c9.969 0 18.051-8.082 18.051-18.051s-8.081-18.051-18.051-18.051h-90.257c-9.969 0-18.051 8.082-18.051 18.051zM181.083 465.399c3.348 5.022 8.984 8.038 15.020 8.038h631.793c6.037 0 11.674-3.017 15.023-8.038l45.129-67.695c5.53-8.294 3.285-19.503-5.009-25.033s-19.503-3.29-25.033 5.009l-39.77 59.652h-612.472l-39.77-59.652c-5.53-8.299-16.737-10.539-25.033-5.009s-10.537 16.738-5.007 25.033l45.128 67.695zM773.137 294.519c-9.63 2.581-19.529-3.136-22.11-12.766l-8.26-30.822c-7.138-26.65 8.678-54.046 35.332-61.188 7.39-1.984 11.78-9.583 9.796-16.973l-8.256-30.827c-2.581-9.63 3.132-19.524 12.762-22.106s19.529 3.132 22.11 12.762l8.26 30.827c7.138 26.65-8.678 54.046-35.328 61.188-7.394 1.98-11.785 9.579-9.801 16.973l8.256 30.822c2.581 9.63-3.132 19.529-12.762 22.11zM502.366 294.519c-9.63 2.581-19.529-3.136-22.106-12.766l-8.26-30.822c-7.142-26.65 8.674-54.046 35.328-61.188 7.394-1.984 11.78-9.583 9.801-16.973l-8.26-30.827c-2.581-9.63 3.136-19.524 12.766-22.106s19.529 3.132 22.106 12.762l8.26 30.827c7.142 26.65-8.674 54.046-35.328 61.188-7.394 1.98-11.78 9.579-9.801 16.973l8.26 30.822c2.581 9.63-3.136 19.529-12.766 22.11zM239.857 294.519c-9.629 2.581-19.528-3.136-22.108-12.766l-8.259-30.822c-7.142-26.65 8.675-54.046 35.328-61.188 7.393-1.984 11.781-9.583 9.8-16.973l-8.259-30.827c-2.58-9.63 3.135-19.524 12.764-22.106s19.528 3.132 22.109 12.762l8.259 30.827c7.142 26.65-8.675 54.046-35.328 61.188-7.393 1.98-11.781 9.579-9.8 16.973l8.259 30.822c2.58 9.63-3.135 19.529-12.765 22.11z" />
<glyph unicode="&#xe95c;" glyph-name="furniture-archive-drawer-table" d="M35.84 937.813c-13.355-0.512-24.576-1.707-26.667-2.944-4.139-2.347-9.173-11.989-9.173-17.536 0-6.229 5.291-15.36 10.368-18.005 3.072-1.579 9.856-2.475 18.517-2.475h13.739l0.427-405.76c0.469-388.48 0.597-406.144 3.584-415.147 10.837-32.427 40.149-61.653 71.979-71.808 4.651-1.493 24.363-2.517 61.44-3.157l54.613-0.981 0.853-15.915c0.811-15.403 1.024-16.128 6.443-20.907 4.565-4.096 7.083-4.992 14.037-4.992s9.472 0.896 14.037 4.992c5.419 4.779 5.632 5.504 6.443 20.907l0.853 15.915h512l0.853-15.915c0.811-15.403 1.024-16.128 6.443-20.907 4.565-4.096 7.083-4.992 14.037-4.992s9.472 0.896 14.037 4.992c5.419 4.779 5.632 5.504 6.443 20.907l0.853 15.915 33.28 1.024c18.432 0.597 36.309 2.005 40.107 3.157 31.573 9.771 61.099 39.211 71.979 71.765 2.987 9.003 3.115 26.667 3.584 415.147l0.427 405.76h13.739c16.171 0 22.144 2.475 26.112 10.837 3.499 7.424 3.499 11.861 0 19.285-5.632 11.819 36.821 10.837-487.424 11.264-261.205 0.256-485.291 0.043-497.963-0.427zM938.667 497.664c0-387.84-0.085-399.531-3.243-409.685-3.2-9.796-8.636-18.714-15.881-26.044-7.241-7.334-16.090-12.877-25.847-16.196-8.363-2.901-27.221-3.072-381.696-3.072s-373.333 0.171-381.696 3.072c-9.757 3.319-18.607 8.862-25.849 16.196-7.243 7.33-12.679 16.247-15.879 26.044-3.157 10.155-3.243 21.845-3.243 409.685v399.189h853.333v-399.189zM211.328 805.76c-20.437-8.405-35.285-26.069-38.784-45.995-2.901-16.64-2.517-186.837 0.469-199.424 4.523-19.328 20.181-36.736 39.509-43.947 9.429-3.541 10.283-3.541 299.477-3.541s290.048 0 299.477 3.541c19.797 7.424 35.456 25.173 39.595 44.928 1.621 7.68 2.176 33.835 2.176 100.011s-0.555 92.331-2.176 100.011c-4.139 19.755-19.797 37.504-39.595 44.928-9.429 3.541-10.197 3.541-299.989 3.499l-290.475-0.043-9.685-3.968zM800.725 764.928c9.984-6.827 9.941-6.229 9.941-103.595s0.043-96.768-9.941-103.595c-4.352-2.944-17.408-3.072-288.725-3.072s-284.373 0.128-288.725 3.072c-9.984 6.827-9.941 6.229-9.941 103.595 0 77.781 0.341 89.813 2.688 94.805 1.279 2.801 3.163 5.282 5.517 7.267s5.118 3.423 8.094 4.21c1.835 0.469 130.048 0.768 284.928 0.64 268.629-0.256 281.813-0.384 286.165-3.328zM436.693 679.253c-4.821-2.645-10.027-11.904-10.027-17.92 0-6.229 5.291-15.36 10.368-18.005 7.125-3.669 142.805-3.669 149.931 0 5.077 2.645 10.368 11.776 10.368 18.005s-5.291 15.36-10.368 18.005c-7.040 3.627-143.573 3.541-150.272-0.085zM211.328 421.76c-20.437-8.405-35.285-26.069-38.784-45.995-2.901-16.64-2.517-186.837 0.469-199.424 4.523-19.328 20.181-36.736 39.509-43.947 9.429-3.541 10.197-3.541 299.989-3.499l290.475 0.043 9.685 3.968c19.669 8.107 34.347 25.003 38.357 44.16 3.157 15.104 3.2 185.259 0.043 200.277-4.139 19.755-19.797 37.504-39.595 44.928-9.429 3.541-10.197 3.541-299.989 3.499l-290.475-0.043-9.685-3.968zM800.725 380.928c9.984-6.827 9.941-6.229 9.941-103.595s0.043-96.768-9.941-103.595c-4.352-2.944-17.408-3.072-288.725-3.072s-284.373 0.128-288.725 3.072c-9.984 6.827-9.941 6.229-9.941 103.595 0 77.781 0.341 89.813 2.688 94.805 1.279 2.799 3.163 5.282 5.517 7.266s5.118 3.422 8.094 4.211c1.835 0.469 130.048 0.768 284.928 0.64 268.629-0.256 281.813-0.384 286.165-3.328zM436.693 295.253c-4.821-2.645-10.027-11.904-10.027-17.92 0-6.229 5.291-15.36 10.368-18.005 7.125-3.669 142.805-3.669 149.931 0 5.077 2.645 10.368 11.776 10.368 18.005s-5.291 15.36-10.368 18.005c-7.040 3.627-143.573 3.541-150.272-0.085z" />
</font>
</defs>
</svg>
